<svg xmlns="http://www.w3.org/2000/svg" xmlns:xlink="http://www.w3.org/1999/xlink" width="288" zoomAndPan="magnify" viewBox="0 0 216 215.999996" height="288" preserveAspectRatio="xMidYMid meet" version="1.0"><defs><g/></defs><g fill="#000000" fill-opacity="1"><g transform="translate(55.536832, 116.634112)"><g><path d="M 20.296875 -6.625 L 20.296875 -11.90625 L 3.109375 -11.90625 L 3.109375 0 L 2.765625 0 L 2.765625 -22.453125 C 2.765625 -22.742188 2.664062 -23.046875 2.46875 -23.359375 C 2.269531 -23.671875 2.023438 -23.828125 1.734375 -23.828125 L 1.734375 -24.171875 C 2.117188 -24.171875 2.441406 -23.976562 2.703125 -23.59375 C 2.972656 -23.21875 3.109375 -22.835938 3.109375 -22.453125 L 3.109375 -12.265625 L 20.296875 -12.265625 L 20.296875 -24.171875 L 20.65625 -24.171875 L 20.65625 -6.625 C 20.65625 -6.332031 20.664062 -6.039062 20.6875 -5.75 C 20.707031 -5.457031 20.753906 -5.1875 20.828125 -4.9375 C 20.960938 -4.40625 21.296875 -4.019531 21.828125 -3.78125 C 22.359375 -3.539062 22.929688 -3.347656 23.546875 -3.203125 C 24.171875 -3.066406 24.703125 -2.863281 25.140625 -2.59375 C 25.554688 -2.363281 25.785156 -1.984375 25.828125 -1.453125 C 25.878906 -0.921875 25.726562 -0.492188 25.375 -0.171875 C 25.03125 0.171875 24.628906 0.335938 24.171875 0.328125 C 23.710938 0.316406 23.296875 0.148438 22.921875 -0.171875 C 22.046875 -1.003906 21.390625 -2.007812 20.953125 -3.1875 C 20.515625 -4.375 20.296875 -5.519531 20.296875 -6.625 Z M 20.296875 -6.625 "/></g></g></g><g fill="#000000" fill-opacity="1"><g transform="translate(81.09381, 116.634112)"><g><path d="M 20.71875 -0.34375 L 20.71875 0 C 20.351562 0 20.03125 -0.191406 19.75 -0.578125 C 19.476562 -0.972656 19.34375 -1.359375 19.34375 -1.734375 L 19.34375 -8.640625 C 19.34375 -9.710938 19.128906 -10.785156 18.703125 -11.859375 C 18.273438 -12.929688 17.632812 -13.894531 16.78125 -14.75 C 15.925781 -15.59375 14.96875 -16.222656 13.90625 -16.640625 C 12.851562 -17.054688 11.785156 -17.265625 10.703125 -17.265625 C 9.617188 -17.265625 8.546875 -17.054688 7.484375 -16.640625 C 6.429688 -16.222656 5.476562 -15.59375 4.625 -14.75 C 3.769531 -13.894531 3.128906 -12.929688 2.703125 -11.859375 C 2.285156 -10.785156 2.078125 -9.710938 2.078125 -8.640625 C 2.078125 -7.503906 2.285156 -6.410156 2.703125 -5.359375 C 3.128906 -4.316406 3.769531 -3.367188 4.625 -2.515625 C 5.476562 -1.671875 6.429688 -1.039062 7.484375 -0.625 C 8.546875 -0.207031 9.597656 0 10.640625 0 C 10.960938 0 11.257812 -0.0078125 11.53125 -0.03125 C 11.8125 -0.0507812 12.078125 -0.0976562 12.328125 -0.171875 C 12.859375 -0.304688 13.242188 -0.640625 13.484375 -1.171875 C 13.722656 -1.703125 13.914062 -2.273438 14.0625 -2.890625 C 14.21875 -3.515625 14.421875 -4.046875 14.671875 -4.484375 C 14.929688 -4.898438 15.316406 -5.128906 15.828125 -5.171875 C 16.347656 -5.222656 16.769531 -5.078125 17.09375 -4.734375 C 17.4375 -4.390625 17.601562 -3.984375 17.59375 -3.515625 C 17.582031 -3.054688 17.414062 -2.644531 17.09375 -2.28125 C 16.257812 -1.40625 15.25 -0.75 14.0625 -0.3125 C 12.882812 0.125 11.726562 0.34375 10.59375 0.34375 C 9.539062 0.34375 8.460938 0.125 7.359375 -0.3125 C 6.253906 -0.75 5.265625 -1.40625 4.390625 -2.28125 C 3.515625 -3.15625 2.851562 -4.144531 2.40625 -5.25 C 1.957031 -6.351562 1.734375 -7.484375 1.734375 -8.640625 C 1.734375 -9.785156 1.957031 -10.910156 2.40625 -12.015625 C 2.851562 -13.117188 3.515625 -14.109375 4.390625 -14.984375 C 5.265625 -15.859375 6.253906 -16.515625 7.359375 -16.953125 C 8.460938 -17.390625 9.578125 -17.609375 10.703125 -17.609375 C 11.859375 -17.609375 12.984375 -17.390625 14.078125 -16.953125 C 15.171875 -16.515625 16.15625 -15.859375 17.03125 -14.984375 C 17.90625 -14.109375 18.566406 -13.117188 19.015625 -12.015625 C 19.460938 -10.910156 19.6875 -9.785156 19.6875 -8.640625 L 19.6875 -1.734375 C 19.6875 -1.429688 19.78125 -1.125 19.96875 -0.8125 C 20.164062 -0.5 20.414062 -0.34375 20.71875 -0.34375 Z M 20.71875 -0.34375 "/></g></g><g transform="translate(102.506412, 116.634112)"><g><path d="M 3.6875 -5.1875 L 3.34375 -5.1875 L 3.34375 -24.171875 L 3.6875 -24.171875 Z M 4.625 -0.140625 C 4.238281 0.160156 3.816406 0.320312 3.359375 0.34375 C 2.910156 0.363281 2.515625 0.203125 2.171875 -0.140625 C 1.828125 -0.460938 1.6875 -0.875 1.75 -1.375 C 1.820312 -1.882812 2.046875 -2.28125 2.421875 -2.5625 C 2.804688 -2.851562 3.222656 -3.007812 3.671875 -3.03125 C 4.117188 -3.0625 4.519531 -2.90625 4.875 -2.5625 C 5.21875 -2.238281 5.359375 -1.820312 5.296875 -1.3125 C 5.242188 -0.800781 5.019531 -0.410156 4.625 -0.140625 Z M 4.625 -0.140625 "/></g></g></g><g fill="#000000" fill-opacity="1"><g transform="translate(109.551847, 116.634112)"><g><path d="M 20.71875 -0.34375 L 20.71875 0 C 20.351562 0 20.03125 -0.191406 19.75 -0.578125 C 19.476562 -0.972656 19.34375 -1.359375 19.34375 -1.734375 L 19.34375 -8.640625 C 19.34375 -9.710938 19.128906 -10.785156 18.703125 -11.859375 C 18.273438 -12.929688 17.632812 -13.894531 16.78125 -14.75 C 15.925781 -15.59375 14.96875 -16.222656 13.90625 -16.640625 C 12.851562 -17.054688 11.785156 -17.265625 10.703125 -17.265625 C 9.617188 -17.265625 8.546875 -17.054688 7.484375 -16.640625 C 6.429688 -16.222656 5.476562 -15.59375 4.625 -14.75 C 3.769531 -13.894531 3.128906 -12.929688 2.703125 -11.859375 C 2.285156 -10.785156 2.078125 -9.710938 2.078125 -8.640625 C 2.078125 -7.503906 2.285156 -6.410156 2.703125 -5.359375 C 3.128906 -4.316406 3.769531 -3.367188 4.625 -2.515625 C 5.476562 -1.671875 6.429688 -1.039062 7.484375 -0.625 C 8.546875 -0.207031 9.597656 0 10.640625 0 C 10.960938 0 11.257812 -0.0078125 11.53125 -0.03125 C 11.8125 -0.0507812 12.078125 -0.0976562 12.328125 -0.171875 C 12.859375 -0.304688 13.242188 -0.640625 13.484375 -1.171875 C 13.722656 -1.703125 13.914062 -2.273438 14.0625 -2.890625 C 14.21875 -3.515625 14.421875 -4.046875 14.671875 -4.484375 C 14.929688 -4.898438 15.316406 -5.128906 15.828125 -5.171875 C 16.347656 -5.222656 16.769531 -5.078125 17.09375 -4.734375 C 17.4375 -4.390625 17.601562 -3.984375 17.59375 -3.515625 C 17.582031 -3.054688 17.414062 -2.644531 17.09375 -2.28125 C 16.257812 -1.40625 15.25 -0.75 14.0625 -0.3125 C 12.882812 0.125 11.726562 0.34375 10.59375 0.34375 C 9.539062 0.34375 8.460938 0.125 7.359375 -0.3125 C 6.253906 -0.75 5.265625 -1.40625 4.390625 -2.28125 C 3.515625 -3.15625 2.851562 -4.144531 2.40625 -5.25 C 1.957031 -6.351562 1.734375 -7.484375 1.734375 -8.640625 C 1.734375 -9.785156 1.957031 -10.910156 2.40625 -12.015625 C 2.851562 -13.117188 3.515625 -14.109375 4.390625 -14.984375 C 5.265625 -15.859375 6.253906 -16.515625 7.359375 -16.953125 C 8.460938 -17.390625 9.578125 -17.609375 10.703125 -17.609375 C 11.859375 -17.609375 12.984375 -17.390625 14.078125 -16.953125 C 15.171875 -16.515625 16.15625 -15.859375 17.03125 -14.984375 C 17.90625 -14.109375 18.566406 -13.117188 19.015625 -12.015625 C 19.460938 -10.910156 19.6875 -9.785156 19.6875 -8.640625 L 19.6875 -1.734375 C 19.6875 -1.429688 19.78125 -1.125 19.96875 -0.8125 C 20.164062 -0.5 20.414062 -0.34375 20.71875 -0.34375 Z M 20.71875 -0.34375 "/></g></g><g transform="translate(130.96445, 116.634112)"><g><path d="M 1.734375 0 L 1.734375 -11.734375 C 1.734375 -12.722656 1.957031 -13.660156 2.40625 -14.546875 C 2.851562 -15.441406 3.484375 -16.175781 4.296875 -16.75 C 5.117188 -17.320312 6.066406 -17.609375 7.140625 -17.609375 C 7.835938 -17.609375 8.59375 -17.488281 9.40625 -17.25 C 10.226562 -17.007812 11.003906 -16.691406 11.734375 -16.296875 C 12.472656 -15.910156 13.023438 -15.472656 13.390625 -14.984375 C 13.785156 -14.484375 13.953125 -14.015625 13.890625 -13.578125 C 13.835938 -13.140625 13.671875 -12.789062 13.390625 -12.53125 C 13.023438 -12.1875 12.609375 -12.03125 12.140625 -12.0625 C 11.671875 -12.101562 11.285156 -12.34375 10.984375 -12.78125 C 10.796875 -13.050781 10.644531 -13.40625 10.53125 -13.84375 C 10.414062 -14.28125 10.285156 -14.722656 10.140625 -15.171875 C 10.003906 -15.617188 9.820312 -16.019531 9.59375 -16.375 C 9.363281 -16.738281 9.046875 -16.976562 8.640625 -17.09375 C 8.378906 -17.164062 8.101562 -17.210938 7.8125 -17.234375 C 7.53125 -17.253906 7.296875 -17.265625 7.109375 -17.265625 C 6.117188 -17.265625 5.242188 -16.992188 4.484375 -16.453125 C 3.722656 -15.910156 3.128906 -15.21875 2.703125 -14.375 C 2.285156 -13.539062 2.078125 -12.660156 2.078125 -11.734375 L 2.078125 0 Z M 1.734375 0 "/></g></g></g><g fill="#000000" fill-opacity="1"><g transform="translate(145.6079, 116.634112)"><g><path d="M 14.5 -16.921875 L 5.875 -16.921875 L 5.875 -6.59375 C 5.875 -6.289062 5.882812 -5.992188 5.90625 -5.703125 C 5.925781 -5.421875 5.972656 -5.15625 6.046875 -4.90625 C 6.179688 -4.375 6.515625 -3.988281 7.046875 -3.75 C 7.578125 -3.507812 8.148438 -3.316406 8.765625 -3.171875 C 9.390625 -3.035156 9.921875 -2.832031 10.359375 -2.5625 C 10.773438 -2.320312 11.003906 -1.9375 11.046875 -1.40625 C 11.097656 -0.882812 10.945312 -0.460938 10.59375 -0.140625 C 10.25 0.203125 9.847656 0.367188 9.390625 0.359375 C 8.929688 0.347656 8.519531 0.179688 8.15625 -0.140625 C 7.28125 -0.960938 6.625 -1.96875 6.1875 -3.15625 C 5.75 -4.34375 5.53125 -5.488281 5.53125 -6.59375 L 5.53125 -16.921875 L 0.34375 -16.921875 L 0.34375 -17.265625 L 5.53125 -17.265625 L 5.53125 -20.71875 L 5.875 -20.71875 L 5.875 -17.265625 L 14.5 -17.265625 Z M 14.5 -16.921875 "/></g></g></g><g fill="#000000" fill-opacity="1"><g transform="translate(55.536832, 116.634112)"><g><path d="M 20.296875 -6.625 L 20.296875 -11.90625 L 3.109375 -11.90625 L 3.109375 0 L 2.765625 0 L 2.765625 -22.453125 C 2.765625 -22.742188 2.664062 -23.046875 2.46875 -23.359375 C 2.269531 -23.671875 2.023438 -23.828125 1.734375 -23.828125 L 1.734375 -24.171875 C 2.117188 -24.171875 2.441406 -23.976562 2.703125 -23.59375 C 2.972656 -23.21875 3.109375 -22.835938 3.109375 -22.453125 L 3.109375 -12.265625 L 20.296875 -12.265625 L 20.296875 -24.171875 L 20.65625 -24.171875 L 20.65625 -6.625 C 20.65625 -6.332031 20.664062 -6.039062 20.6875 -5.75 C 20.707031 -5.457031 20.753906 -5.1875 20.828125 -4.9375 C 20.960938 -4.40625 21.296875 -4.019531 21.828125 -3.78125 C 22.359375 -3.539062 22.929688 -3.347656 23.546875 -3.203125 C 24.171875 -3.066406 24.703125 -2.863281 25.140625 -2.59375 C 25.554688 -2.363281 25.785156 -1.984375 25.828125 -1.453125 C 25.878906 -0.921875 25.726562 -0.492188 25.375 -0.171875 C 25.03125 0.171875 24.628906 0.335938 24.171875 0.328125 C 23.710938 0.316406 23.296875 0.148438 22.921875 -0.171875 C 22.046875 -1.003906 21.390625 -2.007812 20.953125 -3.1875 C 20.515625 -4.375 20.296875 -5.519531 20.296875 -6.625 Z M 20.296875 -6.625 "/></g></g></g><g fill="#000000" fill-opacity="1"><g transform="translate(81.09381, 116.634112)"><g><path d="M 20.71875 -0.34375 L 20.71875 0 C 20.351562 0 20.03125 -0.191406 19.75 -0.578125 C 19.476562 -0.972656 19.34375 -1.359375 19.34375 -1.734375 L 19.34375 -8.640625 C 19.34375 -9.710938 19.128906 -10.785156 18.703125 -11.859375 C 18.273438 -12.929688 17.632812 -13.894531 16.78125 -14.75 C 15.925781 -15.59375 14.96875 -16.222656 13.90625 -16.640625 C 12.851562 -17.054688 11.785156 -17.265625 10.703125 -17.265625 C 9.617188 -17.265625 8.546875 -17.054688 7.484375 -16.640625 C 6.429688 -16.222656 5.476562 -15.59375 4.625 -14.75 C 3.769531 -13.894531 3.128906 -12.929688 2.703125 -11.859375 C 2.285156 -10.785156 2.078125 -9.710938 2.078125 -8.640625 C 2.078125 -7.503906 2.285156 -6.410156 2.703125 -5.359375 C 3.128906 -4.316406 3.769531 -3.367188 4.625 -2.515625 C 5.476562 -1.671875 6.429688 -1.039062 7.484375 -0.625 C 8.546875 -0.207031 9.597656 0 10.640625 0 C 10.960938 0 11.257812 -0.0078125 11.53125 -0.03125 C 11.8125 -0.0507812 12.078125 -0.0976562 12.328125 -0.171875 C 12.859375 -0.304688 13.242188 -0.640625 13.484375 -1.171875 C 13.722656 -1.703125 13.914062 -2.273438 14.0625 -2.890625 C 14.21875 -3.515625 14.421875 -4.046875 14.671875 -4.484375 C 14.929688 -4.898438 15.316406 -5.128906 15.828125 -5.171875 C 16.347656 -5.222656 16.769531 -5.078125 17.09375 -4.734375 C 17.4375 -4.390625 17.601562 -3.984375 17.59375 -3.515625 C 17.582031 -3.054688 17.414062 -2.644531 17.09375 -2.28125 C 16.257812 -1.40625 15.25 -0.75 14.0625 -0.3125 C 12.882812 0.125 11.726562 0.34375 10.59375 0.34375 C 9.539062 0.34375 8.460938 0.125 7.359375 -0.3125 C 6.253906 -0.75 5.265625 -1.40625 4.390625 -2.28125 C 3.515625 -3.15625 2.851562 -4.144531 2.40625 -5.25 C 1.957031 -6.351562 1.734375 -7.484375 1.734375 -8.640625 C 1.734375 -9.785156 1.957031 -10.910156 2.40625 -12.015625 C 2.851562 -13.117188 3.515625 -14.109375 4.390625 -14.984375 C 5.265625 -15.859375 6.253906 -16.515625 7.359375 -16.953125 C 8.460938 -17.390625 9.578125 -17.609375 10.703125 -17.609375 C 11.859375 -17.609375 12.984375 -17.390625 14.078125 -16.953125 C 15.171875 -16.515625 16.15625 -15.859375 17.03125 -14.984375 C 17.90625 -14.109375 18.566406 -13.117188 19.015625 -12.015625 C 19.460938 -10.910156 19.6875 -9.785156 19.6875 -8.640625 L 19.6875 -1.734375 C 19.6875 -1.429688 19.78125 -1.125 19.96875 -0.8125 C 20.164062 -0.5 20.414062 -0.34375 20.71875 -0.34375 Z M 20.71875 -0.34375 "/></g></g><g transform="translate(102.506412, 116.634112)"><g><path d="M 3.6875 -5.1875 L 3.34375 -5.1875 L 3.34375 -24.171875 L 3.6875 -24.171875 Z M 4.625 -0.140625 C 4.238281 0.160156 3.816406 0.320312 3.359375 0.34375 C 2.910156 0.363281 2.515625 0.203125 2.171875 -0.140625 C 1.828125 -0.460938 1.6875 -0.875 1.75 -1.375 C 1.820312 -1.882812 2.046875 -2.28125 2.421875 -2.5625 C 2.804688 -2.851562 3.222656 -3.007812 3.671875 -3.03125 C 4.117188 -3.0625 4.519531 -2.90625 4.875 -2.5625 C 5.21875 -2.238281 5.359375 -1.820312 5.296875 -1.3125 C 5.242188 -0.800781 5.019531 -0.410156 4.625 -0.140625 Z M 4.625 -0.140625 "/></g></g></g><g fill="#000000" fill-opacity="1"><g transform="translate(109.551847, 116.634112)"><g><path d="M 20.71875 -0.34375 L 20.71875 0 C 20.351562 0 20.03125 -0.191406 19.75 -0.578125 C 19.476562 -0.972656 19.34375 -1.359375 19.34375 -1.734375 L 19.34375 -8.640625 C 19.34375 -9.710938 19.128906 -10.785156 18.703125 -11.859375 C 18.273438 -12.929688 17.632812 -13.894531 16.78125 -14.75 C 15.925781 -15.59375 14.96875 -16.222656 13.90625 -16.640625 C 12.851562 -17.054688 11.785156 -17.265625 10.703125 -17.265625 C 9.617188 -17.265625 8.546875 -17.054688 7.484375 -16.640625 C 6.429688 -16.222656 5.476562 -15.59375 4.625 -14.75 C 3.769531 -13.894531 3.128906 -12.929688 2.703125 -11.859375 C 2.285156 -10.785156 2.078125 -9.710938 2.078125 -8.640625 C 2.078125 -7.503906 2.285156 -6.410156 2.703125 -5.359375 C 3.128906 -4.316406 3.769531 -3.367188 4.625 -2.515625 C 5.476562 -1.671875 6.429688 -1.039062 7.484375 -0.625 C 8.546875 -0.207031 9.597656 0 10.640625 0 C 10.960938 0 11.257812 -0.0078125 11.53125 -0.03125 C 11.8125 -0.0507812 12.078125 -0.0976562 12.328125 -0.171875 C 12.859375 -0.304688 13.242188 -0.640625 13.484375 -1.171875 C 13.722656 -1.703125 13.914062 -2.273438 14.0625 -2.890625 C 14.21875 -3.515625 14.421875 -4.046875 14.671875 -4.484375 C 14.929688 -4.898438 15.316406 -5.128906 15.828125 -5.171875 C 16.347656 -5.222656 16.769531 -5.078125 17.09375 -4.734375 C 17.4375 -4.390625 17.601562 -3.984375 17.59375 -3.515625 C 17.582031 -3.054688 17.414062 -2.644531 17.09375 -2.28125 C 16.257812 -1.40625 15.25 -0.75 14.0625 -0.3125 C 12.882812 0.125 11.726562 0.34375 10.59375 0.34375 C 9.539062 0.34375 8.460938 0.125 7.359375 -0.3125 C 6.253906 -0.75 5.265625 -1.40625 4.390625 -2.28125 C 3.515625 -3.15625 2.851562 -4.144531 2.40625 -5.25 C 1.957031 -6.351562 1.734375 -7.484375 1.734375 -8.640625 C 1.734375 -9.785156 1.957031 -10.910156 2.40625 -12.015625 C 2.851562 -13.117188 3.515625 -14.109375 4.390625 -14.984375 C 5.265625 -15.859375 6.253906 -16.515625 7.359375 -16.953125 C 8.460938 -17.390625 9.578125 -17.609375 10.703125 -17.609375 C 11.859375 -17.609375 12.984375 -17.390625 14.078125 -16.953125 C 15.171875 -16.515625 16.15625 -15.859375 17.03125 -14.984375 C 17.90625 -14.109375 18.566406 -13.117188 19.015625 -12.015625 C 19.460938 -10.910156 19.6875 -9.785156 19.6875 -8.640625 L 19.6875 -1.734375 C 19.6875 -1.429688 19.78125 -1.125 19.96875 -0.8125 C 20.164062 -0.5 20.414062 -0.34375 20.71875 -0.34375 Z M 20.71875 -0.34375 "/></g></g><g transform="translate(130.96445, 116.634112)"><g><path d="M 1.734375 0 L 1.734375 -11.734375 C 1.734375 -12.722656 1.957031 -13.660156 2.40625 -14.546875 C 2.851562 -15.441406 3.484375 -16.175781 4.296875 -16.75 C 5.117188 -17.320312 6.066406 -17.609375 7.140625 -17.609375 C 7.835938 -17.609375 8.59375 -17.488281 9.40625 -17.25 C 10.226562 -17.007812 11.003906 -16.691406 11.734375 -16.296875 C 12.472656 -15.910156 13.023438 -15.472656 13.390625 -14.984375 C 13.785156 -14.484375 13.953125 -14.015625 13.890625 -13.578125 C 13.835938 -13.140625 13.671875 -12.789062 13.390625 -12.53125 C 13.023438 -12.1875 12.609375 -12.03125 12.140625 -12.0625 C 11.671875 -12.101562 11.285156 -12.34375 10.984375 -12.78125 C 10.796875 -13.050781 10.644531 -13.40625 10.53125 -13.84375 C 10.414062 -14.28125 10.285156 -14.722656 10.140625 -15.171875 C 10.003906 -15.617188 9.820312 -16.019531 9.59375 -16.375 C 9.363281 -16.738281 9.046875 -16.976562 8.640625 -17.09375 C 8.378906 -17.164062 8.101562 -17.210938 7.8125 -17.234375 C 7.53125 -17.253906 7.296875 -17.265625 7.109375 -17.265625 C 6.117188 -17.265625 5.242188 -16.992188 4.484375 -16.453125 C 3.722656 -15.910156 3.128906 -15.21875 2.703125 -14.375 C 2.285156 -13.539062 2.078125 -12.660156 2.078125 -11.734375 L 2.078125 0 Z M 1.734375 0 "/></g></g></g><g fill="#000000" fill-opacity="1"><g transform="translate(145.6079, 116.634112)"><g><path d="M 14.5 -16.921875 L 5.875 -16.921875 L 5.875 -6.59375 C 5.875 -6.289062 5.882812 -5.992188 5.90625 -5.703125 C 5.925781 -5.421875 5.972656 -5.15625 6.046875 -4.90625 C 6.179688 -4.375 6.515625 -3.988281 7.046875 -3.75 C 7.578125 -3.507812 8.148438 -3.316406 8.765625 -3.171875 C 9.390625 -3.035156 9.921875 -2.832031 10.359375 -2.5625 C 10.773438 -2.320312 11.003906 -1.9375 11.046875 -1.40625 C 11.097656 -0.882812 10.945312 -0.460938 10.59375 -0.140625 C 10.25 0.203125 9.847656 0.367188 9.390625 0.359375 C 8.929688 0.347656 8.519531 0.179688 8.15625 -0.140625 C 7.28125 -0.960938 6.625 -1.96875 6.1875 -3.15625 C 5.75 -4.34375 5.53125 -5.488281 5.53125 -6.59375 L 5.53125 -16.921875 L 0.34375 -16.921875 L 0.34375 -17.265625 L 5.53125 -17.265625 L 5.53125 -20.71875 L 5.875 -20.71875 L 5.875 -17.265625 L 14.5 -17.265625 Z M 14.5 -16.921875 "/></g></g></g><g fill="#000000" fill-opacity="1"><g transform="translate(55.536832, 116.634112)"><g><path d="M 20.296875 -6.625 L 20.296875 -11.90625 L 3.109375 -11.90625 L 3.109375 0 L 2.765625 0 L 2.765625 -22.453125 C 2.765625 -22.742188 2.664062 -23.046875 2.46875 -23.359375 C 2.269531 -23.671875 2.023438 -23.828125 1.734375 -23.828125 L 1.734375 -24.171875 C 2.117188 -24.171875 2.441406 -23.976562 2.703125 -23.59375 C 2.972656 -23.21875 3.109375 -22.835938 3.109375 -22.453125 L 3.109375 -12.265625 L 20.296875 -12.265625 L 20.296875 -24.171875 L 20.65625 -24.171875 L 20.65625 -6.625 C 20.65625 -6.332031 20.664062 -6.039062 20.6875 -5.75 C 20.707031 -5.457031 20.753906 -5.1875 20.828125 -4.9375 C 20.960938 -4.40625 21.296875 -4.019531 21.828125 -3.78125 C 22.359375 -3.539062 22.929688 -3.347656 23.546875 -3.203125 C 24.171875 -3.066406 24.703125 -2.863281 25.140625 -2.59375 C 25.554688 -2.363281 25.785156 -1.984375 25.828125 -1.453125 C 25.878906 -0.921875 25.726562 -0.492188 25.375 -0.171875 C 25.03125 0.171875 24.628906 0.335938 24.171875 0.328125 C 23.710938 0.316406 23.296875 0.148438 22.921875 -0.171875 C 22.046875 -1.003906 21.390625 -2.007812 20.953125 -3.1875 C 20.515625 -4.375 20.296875 -5.519531 20.296875 -6.625 Z M 20.296875 -6.625 "/></g></g></g><g fill="#000000" fill-opacity="1"><g transform="translate(81.09381, 116.634112)"><g><path d="M 20.71875 -0.34375 L 20.71875 0 C 20.351562 0 20.03125 -0.191406 19.75 -0.578125 C 19.476562 -0.972656 19.34375 -1.359375 19.34375 -1.734375 L 19.34375 -8.640625 C 19.34375 -9.710938 19.128906 -10.785156 18.703125 -11.859375 C 18.273438 -12.929688 17.632812 -13.894531 16.78125 -14.75 C 15.925781 -15.59375 14.96875 -16.222656 13.90625 -16.640625 C 12.851562 -17.054688 11.785156 -17.265625 10.703125 -17.265625 C 9.617188 -17.265625 8.546875 -17.054688 7.484375 -16.640625 C 6.429688 -16.222656 5.476562 -15.59375 4.625 -14.75 C 3.769531 -13.894531 3.128906 -12.929688 2.703125 -11.859375 C 2.285156 -10.785156 2.078125 -9.710938 2.078125 -8.640625 C 2.078125 -7.503906 2.285156 -6.410156 2.703125 -5.359375 C 3.128906 -4.316406 3.769531 -3.367188 4.625 -2.515625 C 5.476562 -1.671875 6.429688 -1.039062 7.484375 -0.625 C 8.546875 -0.207031 9.597656 0 10.640625 0 C 10.960938 0 11.257812 -0.0078125 11.53125 -0.03125 C 11.8125 -0.0507812 12.078125 -0.0976562 12.328125 -0.171875 C 12.859375 -0.304688 13.242188 -0.640625 13.484375 -1.171875 C 13.722656 -1.703125 13.914062 -2.273438 14.0625 -2.890625 C 14.21875 -3.515625 14.421875 -4.046875 14.671875 -4.484375 C 14.929688 -4.898438 15.316406 -5.128906 15.828125 -5.171875 C 16.347656 -5.222656 16.769531 -5.078125 17.09375 -4.734375 C 17.4375 -4.390625 17.601562 -3.984375 17.59375 -3.515625 C 17.582031 -3.054688 17.414062 -2.644531 17.09375 -2.28125 C 16.257812 -1.40625 15.25 -0.75 14.0625 -0.3125 C 12.882812 0.125 11.726562 0.34375 10.59375 0.34375 C 9.539062 0.34375 8.460938 0.125 7.359375 -0.3125 C 6.253906 -0.75 5.265625 -1.40625 4.390625 -2.28125 C 3.515625 -3.15625 2.851562 -4.144531 2.40625 -5.25 C 1.957031 -6.351562 1.734375 -7.484375 1.734375 -8.640625 C 1.734375 -9.785156 1.957031 -10.910156 2.40625 -12.015625 C 2.851562 -13.117188 3.515625 -14.109375 4.390625 -14.984375 C 5.265625 -15.859375 6.253906 -16.515625 7.359375 -16.953125 C 8.460938 -17.390625 9.578125 -17.609375 10.703125 -17.609375 C 11.859375 -17.609375 12.984375 -17.390625 14.078125 -16.953125 C 15.171875 -16.515625 16.15625 -15.859375 17.03125 -14.984375 C 17.90625 -14.109375 18.566406 -13.117188 19.015625 -12.015625 C 19.460938 -10.910156 19.6875 -9.785156 19.6875 -8.640625 L 19.6875 -1.734375 C 19.6875 -1.429688 19.78125 -1.125 19.96875 -0.8125 C 20.164062 -0.5 20.414062 -0.34375 20.71875 -0.34375 Z M 20.71875 -0.34375 "/></g></g><g transform="translate(102.506412, 116.634112)"><g><path d="M 3.6875 -5.1875 L 3.34375 -5.1875 L 3.34375 -24.171875 L 3.6875 -24.171875 Z M 4.625 -0.140625 C 4.238281 0.160156 3.816406 0.320312 3.359375 0.34375 C 2.910156 0.363281 2.515625 0.203125 2.171875 -0.140625 C 1.828125 -0.460938 1.6875 -0.875 1.75 -1.375 C 1.820312 -1.882812 2.046875 -2.28125 2.421875 -2.5625 C 2.804688 -2.851562 3.222656 -3.007812 3.671875 -3.03125 C 4.117188 -3.0625 4.519531 -2.90625 4.875 -2.5625 C 5.21875 -2.238281 5.359375 -1.820312 5.296875 -1.3125 C 5.242188 -0.800781 5.019531 -0.410156 4.625 -0.140625 Z M 4.625 -0.140625 "/></g></g></g><g fill="#000000" fill-opacity="1"><g transform="translate(109.551847, 116.634112)"><g><path d="M 20.71875 -0.34375 L 20.71875 0 C 20.351562 0 20.03125 -0.191406 19.75 -0.578125 C 19.476562 -0.972656 19.34375 -1.359375 19.34375 -1.734375 L 19.34375 -8.640625 C 19.34375 -9.710938 19.128906 -10.785156 18.703125 -11.859375 C 18.273438 -12.929688 17.632812 -13.894531 16.78125 -14.75 C 15.925781 -15.59375 14.96875 -16.222656 13.90625 -16.640625 C 12.851562 -17.054688 11.785156 -17.265625 10.703125 -17.265625 C 9.617188 -17.265625 8.546875 -17.054688 7.484375 -16.640625 C 6.429688 -16.222656 5.476562 -15.59375 4.625 -14.75 C 3.769531 -13.894531 3.128906 -12.929688 2.703125 -11.859375 C 2.285156 -10.785156 2.078125 -9.710938 2.078125 -8.640625 C 2.078125 -7.503906 2.285156 -6.410156 2.703125 -5.359375 C 3.128906 -4.316406 3.769531 -3.367188 4.625 -2.515625 C 5.476562 -1.671875 6.429688 -1.039062 7.484375 -0.625 C 8.546875 -0.207031 9.597656 0 10.640625 0 C 10.960938 0 11.257812 -0.0078125 11.53125 -0.03125 C 11.8125 -0.0507812 12.078125 -0.0976562 12.328125 -0.171875 C 12.859375 -0.304688 13.242188 -0.640625 13.484375 -1.171875 C 13.722656 -1.703125 13.914062 -2.273438 14.0625 -2.890625 C 14.21875 -3.515625 14.421875 -4.046875 14.671875 -4.484375 C 14.929688 -4.898438 15.316406 -5.128906 15.828125 -5.171875 C 16.347656 -5.222656 16.769531 -5.078125 17.09375 -4.734375 C 17.4375 -4.390625 17.601562 -3.984375 17.59375 -3.515625 C 17.582031 -3.054688 17.414062 -2.644531 17.09375 -2.28125 C 16.257812 -1.40625 15.25 -0.75 14.0625 -0.3125 C 12.882812 0.125 11.726562 0.34375 10.59375 0.34375 C 9.539062 0.34375 8.460938 0.125 7.359375 -0.3125 C 6.253906 -0.75 5.265625 -1.40625 4.390625 -2.28125 C 3.515625 -3.15625 2.851562 -4.144531 2.40625 -5.25 C 1.957031 -6.351562 1.734375 -7.484375 1.734375 -8.640625 C 1.734375 -9.785156 1.957031 -10.910156 2.40625 -12.015625 C 2.851562 -13.117188 3.515625 -14.109375 4.390625 -14.984375 C 5.265625 -15.859375 6.253906 -16.515625 7.359375 -16.953125 C 8.460938 -17.390625 9.578125 -17.609375 10.703125 -17.609375 C 11.859375 -17.609375 12.984375 -17.390625 14.078125 -16.953125 C 15.171875 -16.515625 16.15625 -15.859375 17.03125 -14.984375 C 17.90625 -14.109375 18.566406 -13.117188 19.015625 -12.015625 C 19.460938 -10.910156 19.6875 -9.785156 19.6875 -8.640625 L 19.6875 -1.734375 C 19.6875 -1.429688 19.78125 -1.125 19.96875 -0.8125 C 20.164062 -0.5 20.414062 -0.34375 20.71875 -0.34375 Z M 20.71875 -0.34375 "/></g></g><g transform="translate(130.96445, 116.634112)"><g><path d="M 1.734375 0 L 1.734375 -11.734375 C 1.734375 -12.722656 1.957031 -13.660156 2.40625 -14.546875 C 2.851562 -15.441406 3.484375 -16.175781 4.296875 -16.75 C 5.117188 -17.320312 6.066406 -17.609375 7.140625 -17.609375 C 7.835938 -17.609375 8.59375 -17.488281 9.40625 -17.25 C 10.226562 -17.007812 11.003906 -16.691406 11.734375 -16.296875 C 12.472656 -15.910156 13.023438 -15.472656 13.390625 -14.984375 C 13.785156 -14.484375 13.953125 -14.015625 13.890625 -13.578125 C 13.835938 -13.140625 13.671875 -12.789062 13.390625 -12.53125 C 13.023438 -12.1875 12.609375 -12.03125 12.140625 -12.0625 C 11.671875 -12.101562 11.285156 -12.34375 10.984375 -12.78125 C 10.796875 -13.050781 10.644531 -13.40625 10.53125 -13.84375 C 10.414062 -14.28125 10.285156 -14.722656 10.140625 -15.171875 C 10.003906 -15.617188 9.820312 -16.019531 9.59375 -16.375 C 9.363281 -16.738281 9.046875 -16.976562 8.640625 -17.09375 C 8.378906 -17.164062 8.101562 -17.210938 7.8125 -17.234375 C 7.53125 -17.253906 7.296875 -17.265625 7.109375 -17.265625 C 6.117188 -17.265625 5.242188 -16.992188 4.484375 -16.453125 C 3.722656 -15.910156 3.128906 -15.21875 2.703125 -14.375 C 2.285156 -13.539062 2.078125 -12.660156 2.078125 -11.734375 L 2.078125 0 Z M 1.734375 0 "/></g></g></g><g fill="#000000" fill-opacity="1"><g transform="translate(145.6079, 116.634112)"><g><path d="M 14.5 -16.921875 L 5.875 -16.921875 L 5.875 -6.59375 C 5.875 -6.289062 5.882812 -5.992188 5.90625 -5.703125 C 5.925781 -5.421875 5.972656 -5.15625 6.046875 -4.90625 C 6.179688 -4.375 6.515625 -3.988281 7.046875 -3.75 C 7.578125 -3.507812 8.148438 -3.316406 8.765625 -3.171875 C 9.390625 -3.035156 9.921875 -2.832031 10.359375 -2.5625 C 10.773438 -2.320312 11.003906 -1.9375 11.046875 -1.40625 C 11.097656 -0.882812 10.945312 -0.460938 10.59375 -0.140625 C 10.25 0.203125 9.847656 0.367188 9.390625 0.359375 C 8.929688 0.347656 8.519531 0.179688 8.15625 -0.140625 C 7.28125 -0.960938 6.625 -1.96875 6.1875 -3.15625 C 5.75 -4.34375 5.53125 -5.488281 5.53125 -6.59375 L 5.53125 -16.921875 L 0.34375 -16.921875 L 0.34375 -17.265625 L 5.53125 -17.265625 L 5.53125 -20.71875 L 5.875 -20.71875 L 5.875 -17.265625 L 14.5 -17.265625 Z M 14.5 -16.921875 "/></g></g></g><g fill="#000000" fill-opacity="1"><g transform="translate(55.536832, 116.634112)"><g><path d="M 20.296875 -6.625 L 20.296875 -11.90625 L 3.109375 -11.90625 L 3.109375 0 L 2.765625 0 L 2.765625 -22.453125 C 2.765625 -22.742188 2.664062 -23.046875 2.46875 -23.359375 C 2.269531 -23.671875 2.023438 -23.828125 1.734375 -23.828125 L 1.734375 -24.171875 C 2.117188 -24.171875 2.441406 -23.976562 2.703125 -23.59375 C 2.972656 -23.21875 3.109375 -22.835938 3.109375 -22.453125 L 3.109375 -12.265625 L 20.296875 -12.265625 L 20.296875 -24.171875 L 20.65625 -24.171875 L 20.65625 -6.625 C 20.65625 -6.332031 20.664062 -6.039062 20.6875 -5.75 C 20.707031 -5.457031 20.753906 -5.1875 20.828125 -4.9375 C 20.960938 -4.40625 21.296875 -4.019531 21.828125 -3.78125 C 22.359375 -3.539062 22.929688 -3.347656 23.546875 -3.203125 C 24.171875 -3.066406 24.703125 -2.863281 25.140625 -2.59375 C 25.554688 -2.363281 25.785156 -1.984375 25.828125 -1.453125 C 25.878906 -0.921875 25.726562 -0.492188 25.375 -0.171875 C 25.03125 0.171875 24.628906 0.335938 24.171875 0.328125 C 23.710938 0.316406 23.296875 0.148438 22.921875 -0.171875 C 22.046875 -1.003906 21.390625 -2.007812 20.953125 -3.1875 C 20.515625 -4.375 20.296875 -5.519531 20.296875 -6.625 Z M 20.296875 -6.625 "/></g></g></g><g fill="#000000" fill-opacity="1"><g transform="translate(81.09381, 116.634112)"><g><path d="M 20.71875 -0.34375 L 20.71875 0 C 20.351562 0 20.03125 -0.191406 19.75 -0.578125 C 19.476562 -0.972656 19.34375 -1.359375 19.34375 -1.734375 L 19.34375 -8.640625 C 19.34375 -9.710938 19.128906 -10.785156 18.703125 -11.859375 C 18.273438 -12.929688 17.632812 -13.894531 16.78125 -14.75 C 15.925781 -15.59375 14.96875 -16.222656 13.90625 -16.640625 C 12.851562 -17.054688 11.785156 -17.265625 10.703125 -17.265625 C 9.617188 -17.265625 8.546875 -17.054688 7.484375 -16.640625 C 6.429688 -16.222656 5.476562 -15.59375 4.625 -14.75 C 3.769531 -13.894531 3.128906 -12.929688 2.703125 -11.859375 C 2.285156 -10.785156 2.078125 -9.710938 2.078125 -8.640625 C 2.078125 -7.503906 2.285156 -6.410156 2.703125 -5.359375 C 3.128906 -4.316406 3.769531 -3.367188 4.625 -2.515625 C 5.476562 -1.671875 6.429688 -1.039062 7.484375 -0.625 C 8.546875 -0.207031 9.597656 0 10.640625 0 C 10.960938 0 11.257812 -0.0078125 11.53125 -0.03125 C 11.8125 -0.0507812 12.078125 -0.0976562 12.328125 -0.171875 C 12.859375 -0.304688 13.242188 -0.640625 13.484375 -1.171875 C 13.722656 -1.703125 13.914062 -2.273438 14.0625 -2.890625 C 14.21875 -3.515625 14.421875 -4.046875 14.671875 -4.484375 C 14.929688 -4.898438 15.316406 -5.128906 15.828125 -5.171875 C 16.347656 -5.222656 16.769531 -5.078125 17.09375 -4.734375 C 17.4375 -4.390625 17.601562 -3.984375 17.59375 -3.515625 C 17.582031 -3.054688 17.414062 -2.644531 17.09375 -2.28125 C 16.257812 -1.40625 15.25 -0.75 14.0625 -0.3125 C 12.882812 0.125 11.726562 0.34375 10.59375 0.34375 C 9.539062 0.34375 8.460938 0.125 7.359375 -0.3125 C 6.253906 -0.75 5.265625 -1.40625 4.390625 -2.28125 C 3.515625 -3.15625 2.851562 -4.144531 2.40625 -5.25 C 1.957031 -6.351562 1.734375 -7.484375 1.734375 -8.640625 C 1.734375 -9.785156 1.957031 -10.910156 2.40625 -12.015625 C 2.851562 -13.117188 3.515625 -14.109375 4.390625 -14.984375 C 5.265625 -15.859375 6.253906 -16.515625 7.359375 -16.953125 C 8.460938 -17.390625 9.578125 -17.609375 10.703125 -17.609375 C 11.859375 -17.609375 12.984375 -17.390625 14.078125 -16.953125 C 15.171875 -16.515625 16.15625 -15.859375 17.03125 -14.984375 C 17.90625 -14.109375 18.566406 -13.117188 19.015625 -12.015625 C 19.460938 -10.910156 19.6875 -9.785156 19.6875 -8.640625 L 19.6875 -1.734375 C 19.6875 -1.429688 19.78125 -1.125 19.96875 -0.8125 C 20.164062 -0.5 20.414062 -0.34375 20.71875 -0.34375 Z M 20.71875 -0.34375 "/></g></g><g transform="translate(102.506412, 116.634112)"><g><path d="M 3.6875 -5.1875 L 3.34375 -5.1875 L 3.34375 -24.171875 L 3.6875 -24.171875 Z M 4.625 -0.140625 C 4.238281 0.160156 3.816406 0.320312 3.359375 0.34375 C 2.910156 0.363281 2.515625 0.203125 2.171875 -0.140625 C 1.828125 -0.460938 1.6875 -0.875 1.75 -1.375 C 1.820312 -1.882812 2.046875 -2.28125 2.421875 -2.5625 C 2.804688 -2.851562 3.222656 -3.007812 3.671875 -3.03125 C 4.117188 -3.0625 4.519531 -2.90625 4.875 -2.5625 C 5.21875 -2.238281 5.359375 -1.820312 5.296875 -1.3125 C 5.242188 -0.800781 5.019531 -0.410156 4.625 -0.140625 Z M 4.625 -0.140625 "/></g></g></g><g fill="#000000" fill-opacity="1"><g transform="translate(109.551847, 116.634112)"><g><path d="M 20.71875 -0.34375 L 20.71875 0 C 20.351562 0 20.03125 -0.191406 19.75 -0.578125 C 19.476562 -0.972656 19.34375 -1.359375 19.34375 -1.734375 L 19.34375 -8.640625 C 19.34375 -9.710938 19.128906 -10.785156 18.703125 -11.859375 C 18.273438 -12.929688 17.632812 -13.894531 16.78125 -14.75 C 15.925781 -15.59375 14.96875 -16.222656 13.90625 -16.640625 C 12.851562 -17.054688 11.785156 -17.265625 10.703125 -17.265625 C 9.617188 -17.265625 8.546875 -17.054688 7.484375 -16.640625 C 6.429688 -16.222656 5.476562 -15.59375 4.625 -14.75 C 3.769531 -13.894531 3.128906 -12.929688 2.703125 -11.859375 C 2.285156 -10.785156 2.078125 -9.710938 2.078125 -8.640625 C 2.078125 -7.503906 2.285156 -6.410156 2.703125 -5.359375 C 3.128906 -4.316406 3.769531 -3.367188 4.625 -2.515625 C 5.476562 -1.671875 6.429688 -1.039062 7.484375 -0.625 C 8.546875 -0.207031 9.597656 0 10.640625 0 C 10.960938 0 11.257812 -0.0078125 11.53125 -0.03125 C 11.8125 -0.0507812 12.078125 -0.0976562 12.328125 -0.171875 C 12.859375 -0.304688 13.242188 -0.640625 13.484375 -1.171875 C 13.722656 -1.703125 13.914062 -2.273438 14.0625 -2.890625 C 14.21875 -3.515625 14.421875 -4.046875 14.671875 -4.484375 C 14.929688 -4.898438 15.316406 -5.128906 15.828125 -5.171875 C 16.347656 -5.222656 16.769531 -5.078125 17.09375 -4.734375 C 17.4375 -4.390625 17.601562 -3.984375 17.59375 -3.515625 C 17.582031 -3.054688 17.414062 -2.644531 17.09375 -2.28125 C 16.257812 -1.40625 15.25 -0.75 14.0625 -0.3125 C 12.882812 0.125 11.726562 0.34375 10.59375 0.34375 C 9.539062 0.34375 8.460938 0.125 7.359375 -0.3125 C 6.253906 -0.75 5.265625 -1.40625 4.390625 -2.28125 C 3.515625 -3.15625 2.851562 -4.144531 2.40625 -5.25 C 1.957031 -6.351562 1.734375 -7.484375 1.734375 -8.640625 C 1.734375 -9.785156 1.957031 -10.910156 2.40625 -12.015625 C 2.851562 -13.117188 3.515625 -14.109375 4.390625 -14.984375 C 5.265625 -15.859375 6.253906 -16.515625 7.359375 -16.953125 C 8.460938 -17.390625 9.578125 -17.609375 10.703125 -17.609375 C 11.859375 -17.609375 12.984375 -17.390625 14.078125 -16.953125 C 15.171875 -16.515625 16.15625 -15.859375 17.03125 -14.984375 C 17.90625 -14.109375 18.566406 -13.117188 19.015625 -12.015625 C 19.460938 -10.910156 19.6875 -9.785156 19.6875 -8.640625 L 19.6875 -1.734375 C 19.6875 -1.429688 19.78125 -1.125 19.96875 -0.8125 C 20.164062 -0.5 20.414062 -0.34375 20.71875 -0.34375 Z M 20.71875 -0.34375 "/></g></g><g transform="translate(130.96445, 116.634112)"><g><path d="M 1.734375 0 L 1.734375 -11.734375 C 1.734375 -12.722656 1.957031 -13.660156 2.40625 -14.546875 C 2.851562 -15.441406 3.484375 -16.175781 4.296875 -16.75 C 5.117188 -17.320312 6.066406 -17.609375 7.140625 -17.609375 C 7.835938 -17.609375 8.59375 -17.488281 9.40625 -17.25 C 10.226562 -17.007812 11.003906 -16.691406 11.734375 -16.296875 C 12.472656 -15.910156 13.023438 -15.472656 13.390625 -14.984375 C 13.785156 -14.484375 13.953125 -14.015625 13.890625 -13.578125 C 13.835938 -13.140625 13.671875 -12.789062 13.390625 -12.53125 C 13.023438 -12.1875 12.609375 -12.03125 12.140625 -12.0625 C 11.671875 -12.101562 11.285156 -12.34375 10.984375 -12.78125 C 10.796875 -13.050781 10.644531 -13.40625 10.53125 -13.84375 C 10.414062 -14.28125 10.285156 -14.722656 10.140625 -15.171875 C 10.003906 -15.617188 9.820312 -16.019531 9.59375 -16.375 C 9.363281 -16.738281 9.046875 -16.976562 8.640625 -17.09375 C 8.378906 -17.164062 8.101562 -17.210938 7.8125 -17.234375 C 7.53125 -17.253906 7.296875 -17.265625 7.109375 -17.265625 C 6.117188 -17.265625 5.242188 -16.992188 4.484375 -16.453125 C 3.722656 -15.910156 3.128906 -15.21875 2.703125 -14.375 C 2.285156 -13.539062 2.078125 -12.660156 2.078125 -11.734375 L 2.078125 0 Z M 1.734375 0 "/></g></g></g><g fill="#000000" fill-opacity="1"><g transform="translate(145.6079, 116.634112)"><g><path d="M 14.5 -16.921875 L 5.875 -16.921875 L 5.875 -6.59375 C 5.875 -6.289062 5.882812 -5.992188 5.90625 -5.703125 C 5.925781 -5.421875 5.972656 -5.15625 6.046875 -4.90625 C 6.179688 -4.375 6.515625 -3.988281 7.046875 -3.75 C 7.578125 -3.507812 8.148438 -3.316406 8.765625 -3.171875 C 9.390625 -3.035156 9.921875 -2.832031 10.359375 -2.5625 C 10.773438 -2.320312 11.003906 -1.9375 11.046875 -1.40625 C 11.097656 -0.882812 10.945312 -0.460938 10.59375 -0.140625 C 10.25 0.203125 9.847656 0.367188 9.390625 0.359375 C 8.929688 0.347656 8.519531 0.179688 8.15625 -0.140625 C 7.28125 -0.960938 6.625 -1.96875 6.1875 -3.15625 C 5.75 -4.34375 5.53125 -5.488281 5.53125 -6.59375 L 5.53125 -16.921875 L 0.34375 -16.921875 L 0.34375 -17.265625 L 5.53125 -17.265625 L 5.53125 -20.71875 L 5.875 -20.71875 L 5.875 -17.265625 L 14.5 -17.265625 Z M 14.5 -16.921875 "/></g></g></g><g fill="#000000" fill-opacity="1"><g transform="translate(55.536832, 116.634112)"><g><path d="M 20.296875 -6.625 L 20.296875 -11.90625 L 3.109375 -11.90625 L 3.109375 0 L 2.765625 0 L 2.765625 -22.453125 C 2.765625 -22.742188 2.664062 -23.046875 2.46875 -23.359375 C 2.269531 -23.671875 2.023438 -23.828125 1.734375 -23.828125 L 1.734375 -24.171875 C 2.117188 -24.171875 2.441406 -23.976562 2.703125 -23.59375 C 2.972656 -23.21875 3.109375 -22.835938 3.109375 -22.453125 L 3.109375 -12.265625 L 20.296875 -12.265625 L 20.296875 -24.171875 L 20.65625 -24.171875 L 20.65625 -6.625 C 20.65625 -6.332031 20.664062 -6.039062 20.6875 -5.75 C 20.707031 -5.457031 20.753906 -5.1875 20.828125 -4.9375 C 20.960938 -4.40625 21.296875 -4.019531 21.828125 -3.78125 C 22.359375 -3.539062 22.929688 -3.347656 23.546875 -3.203125 C 24.171875 -3.066406 24.703125 -2.863281 25.140625 -2.59375 C 25.554688 -2.363281 25.785156 -1.984375 25.828125 -1.453125 C 25.878906 -0.921875 25.726562 -0.492188 25.375 -0.171875 C 25.03125 0.171875 24.628906 0.335938 24.171875 0.328125 C 23.710938 0.316406 23.296875 0.148438 22.921875 -0.171875 C 22.046875 -1.003906 21.390625 -2.007812 20.953125 -3.1875 C 20.515625 -4.375 20.296875 -5.519531 20.296875 -6.625 Z M 20.296875 -6.625 "/></g></g></g><g fill="#000000" fill-opacity="1"><g transform="translate(81.09381, 116.634112)"><g><path d="M 20.71875 -0.34375 L 20.71875 0 C 20.351562 0 20.03125 -0.191406 19.75 -0.578125 C 19.476562 -0.972656 19.34375 -1.359375 19.34375 -1.734375 L 19.34375 -8.640625 C 19.34375 -9.710938 19.128906 -10.785156 18.703125 -11.859375 C 18.273438 -12.929688 17.632812 -13.894531 16.78125 -14.75 C 15.925781 -15.59375 14.96875 -16.222656 13.90625 -16.640625 C 12.851562 -17.054688 11.785156 -17.265625 10.703125 -17.265625 C 9.617188 -17.265625 8.546875 -17.054688 7.484375 -16.640625 C 6.429688 -16.222656 5.476562 -15.59375 4.625 -14.75 C 3.769531 -13.894531 3.128906 -12.929688 2.703125 -11.859375 C 2.285156 -10.785156 2.078125 -9.710938 2.078125 -8.640625 C 2.078125 -7.503906 2.285156 -6.410156 2.703125 -5.359375 C 3.128906 -4.316406 3.769531 -3.367188 4.625 -2.515625 C 5.476562 -1.671875 6.429688 -1.039062 7.484375 -0.625 C 8.546875 -0.207031 9.597656 0 10.640625 0 C 10.960938 0 11.257812 -0.0078125 11.53125 -0.03125 C 11.8125 -0.0507812 12.078125 -0.0976562 12.328125 -0.171875 C 12.859375 -0.304688 13.242188 -0.640625 13.484375 -1.171875 C 13.722656 -1.703125 13.914062 -2.273438 14.0625 -2.890625 C 14.21875 -3.515625 14.421875 -4.046875 14.671875 -4.484375 C 14.929688 -4.898438 15.316406 -5.128906 15.828125 -5.171875 C 16.347656 -5.222656 16.769531 -5.078125 17.09375 -4.734375 C 17.4375 -4.390625 17.601562 -3.984375 17.59375 -3.515625 C 17.582031 -3.054688 17.414062 -2.644531 17.09375 -2.28125 C 16.257812 -1.40625 15.25 -0.75 14.0625 -0.3125 C 12.882812 0.125 11.726562 0.34375 10.59375 0.34375 C 9.539062 0.34375 8.460938 0.125 7.359375 -0.3125 C 6.253906 -0.75 5.265625 -1.40625 4.390625 -2.28125 C 3.515625 -3.15625 2.851562 -4.144531 2.40625 -5.25 C 1.957031 -6.351562 1.734375 -7.484375 1.734375 -8.640625 C 1.734375 -9.785156 1.957031 -10.910156 2.40625 -12.015625 C 2.851562 -13.117188 3.515625 -14.109375 4.390625 -14.984375 C 5.265625 -15.859375 6.253906 -16.515625 7.359375 -16.953125 C 8.460938 -17.390625 9.578125 -17.609375 10.703125 -17.609375 C 11.859375 -17.609375 12.984375 -17.390625 14.078125 -16.953125 C 15.171875 -16.515625 16.15625 -15.859375 17.03125 -14.984375 C 17.90625 -14.109375 18.566406 -13.117188 19.015625 -12.015625 C 19.460938 -10.910156 19.6875 -9.785156 19.6875 -8.640625 L 19.6875 -1.734375 C 19.6875 -1.429688 19.78125 -1.125 19.96875 -0.8125 C 20.164062 -0.5 20.414062 -0.34375 20.71875 -0.34375 Z M 20.71875 -0.34375 "/></g></g><g transform="translate(102.506412, 116.634112)"><g><path d="M 3.6875 -5.1875 L 3.34375 -5.1875 L 3.34375 -24.171875 L 3.6875 -24.171875 Z M 4.625 -0.140625 C 4.238281 0.160156 3.816406 0.320312 3.359375 0.34375 C 2.910156 0.363281 2.515625 0.203125 2.171875 -0.140625 C 1.828125 -0.460938 1.6875 -0.875 1.75 -1.375 C 1.820312 -1.882812 2.046875 -2.28125 2.421875 -2.5625 C 2.804688 -2.851562 3.222656 -3.007812 3.671875 -3.03125 C 4.117188 -3.0625 4.519531 -2.90625 4.875 -2.5625 C 5.21875 -2.238281 5.359375 -1.820312 5.296875 -1.3125 C 5.242188 -0.800781 5.019531 -0.410156 4.625 -0.140625 Z M 4.625 -0.140625 "/></g></g></g><g fill="#000000" fill-opacity="1"><g transform="translate(109.551847, 116.634112)"><g><path d="M 20.71875 -0.34375 L 20.71875 0 C 20.351562 0 20.03125 -0.191406 19.75 -0.578125 C 19.476562 -0.972656 19.34375 -1.359375 19.34375 -1.734375 L 19.34375 -8.640625 C 19.34375 -9.710938 19.128906 -10.785156 18.703125 -11.859375 C 18.273438 -12.929688 17.632812 -13.894531 16.78125 -14.75 C 15.925781 -15.59375 14.96875 -16.222656 13.90625 -16.640625 C 12.851562 -17.054688 11.785156 -17.265625 10.703125 -17.265625 C 9.617188 -17.265625 8.546875 -17.054688 7.484375 -16.640625 C 6.429688 -16.222656 5.476562 -15.59375 4.625 -14.75 C 3.769531 -13.894531 3.128906 -12.929688 2.703125 -11.859375 C 2.285156 -10.785156 2.078125 -9.710938 2.078125 -8.640625 C 2.078125 -7.503906 2.285156 -6.410156 2.703125 -5.359375 C 3.128906 -4.316406 3.769531 -3.367188 4.625 -2.515625 C 5.476562 -1.671875 6.429688 -1.039062 7.484375 -0.625 C 8.546875 -0.207031 9.597656 0 10.640625 0 C 10.960938 0 11.257812 -0.0078125 11.53125 -0.03125 C 11.8125 -0.0507812 12.078125 -0.0976562 12.328125 -0.171875 C 12.859375 -0.304688 13.242188 -0.640625 13.484375 -1.171875 C 13.722656 -1.703125 13.914062 -2.273438 14.0625 -2.890625 C 14.21875 -3.515625 14.421875 -4.046875 14.671875 -4.484375 C 14.929688 -4.898438 15.316406 -5.128906 15.828125 -5.171875 C 16.347656 -5.222656 16.769531 -5.078125 17.09375 -4.734375 C 17.4375 -4.390625 17.601562 -3.984375 17.59375 -3.515625 C 17.582031 -3.054688 17.414062 -2.644531 17.09375 -2.28125 C 16.257812 -1.40625 15.25 -0.75 14.0625 -0.3125 C 12.882812 0.125 11.726562 0.34375 10.59375 0.34375 C 9.539062 0.34375 8.460938 0.125 7.359375 -0.3125 C 6.253906 -0.75 5.265625 -1.40625 4.390625 -2.28125 C 3.515625 -3.15625 2.851562 -4.144531 2.40625 -5.25 C 1.957031 -6.351562 1.734375 -7.484375 1.734375 -8.640625 C 1.734375 -9.785156 1.957031 -10.910156 2.40625 -12.015625 C 2.851562 -13.117188 3.515625 -14.109375 4.390625 -14.984375 C 5.265625 -15.859375 6.253906 -16.515625 7.359375 -16.953125 C 8.460938 -17.390625 9.578125 -17.609375 10.703125 -17.609375 C 11.859375 -17.609375 12.984375 -17.390625 14.078125 -16.953125 C 15.171875 -16.515625 16.15625 -15.859375 17.03125 -14.984375 C 17.90625 -14.109375 18.566406 -13.117188 19.015625 -12.015625 C 19.460938 -10.910156 19.6875 -9.785156 19.6875 -8.640625 L 19.6875 -1.734375 C 19.6875 -1.429688 19.78125 -1.125 19.96875 -0.8125 C 20.164062 -0.5 20.414062 -0.34375 20.71875 -0.34375 Z M 20.71875 -0.34375 "/></g></g><g transform="translate(130.96445, 116.634112)"><g><path d="M 1.734375 0 L 1.734375 -11.734375 C 1.734375 -12.722656 1.957031 -13.660156 2.40625 -14.546875 C 2.851562 -15.441406 3.484375 -16.175781 4.296875 -16.75 C 5.117188 -17.320312 6.066406 -17.609375 7.140625 -17.609375 C 7.835938 -17.609375 8.59375 -17.488281 9.40625 -17.25 C 10.226562 -17.007812 11.003906 -16.691406 11.734375 -16.296875 C 12.472656 -15.910156 13.023438 -15.472656 13.390625 -14.984375 C 13.785156 -14.484375 13.953125 -14.015625 13.890625 -13.578125 C 13.835938 -13.140625 13.671875 -12.789062 13.390625 -12.53125 C 13.023438 -12.1875 12.609375 -12.03125 12.140625 -12.0625 C 11.671875 -12.101562 11.285156 -12.34375 10.984375 -12.78125 C 10.796875 -13.050781 10.644531 -13.40625 10.53125 -13.84375 C 10.414062 -14.28125 10.285156 -14.722656 10.140625 -15.171875 C 10.003906 -15.617188 9.820312 -16.019531 9.59375 -16.375 C 9.363281 -16.738281 9.046875 -16.976562 8.640625 -17.09375 C 8.378906 -17.164062 8.101562 -17.210938 7.8125 -17.234375 C 7.53125 -17.253906 7.296875 -17.265625 7.109375 -17.265625 C 6.117188 -17.265625 5.242188 -16.992188 4.484375 -16.453125 C 3.722656 -15.910156 3.128906 -15.21875 2.703125 -14.375 C 2.285156 -13.539062 2.078125 -12.660156 2.078125 -11.734375 L 2.078125 0 Z M 1.734375 0 "/></g></g></g><g fill="#000000" fill-opacity="1"><g transform="translate(145.6079, 116.634112)"><g><path d="M 14.5 -16.921875 L 5.875 -16.921875 L 5.875 -6.59375 C 5.875 -6.289062 5.882812 -5.992188 5.90625 -5.703125 C 5.925781 -5.421875 5.972656 -5.15625 6.046875 -4.90625 C 6.179688 -4.375 6.515625 -3.988281 7.046875 -3.75 C 7.578125 -3.507812 8.148438 -3.316406 8.765625 -3.171875 C 9.390625 -3.035156 9.921875 -2.832031 10.359375 -2.5625 C 10.773438 -2.320312 11.003906 -1.9375 11.046875 -1.40625 C 11.097656 -0.882812 10.945312 -0.460938 10.59375 -0.140625 C 10.25 0.203125 9.847656 0.367188 9.390625 0.359375 C 8.929688 0.347656 8.519531 0.179688 8.15625 -0.140625 C 7.28125 -0.960938 6.625 -1.96875 6.1875 -3.15625 C 5.75 -4.34375 5.53125 -5.488281 5.53125 -6.59375 L 5.53125 -16.921875 L 0.34375 -16.921875 L 0.34375 -17.265625 L 5.53125 -17.265625 L 5.53125 -20.71875 L 5.875 -20.71875 L 5.875 -17.265625 L 14.5 -17.265625 Z M 14.5 -16.921875 "/></g></g></g><g fill="#000000" fill-opacity="1"><g transform="translate(55.536832, 116.634112)"><g><path d="M 20.296875 -6.625 L 20.296875 -11.90625 L 3.109375 -11.90625 L 3.109375 0 L 2.765625 0 L 2.765625 -22.453125 C 2.765625 -22.742188 2.664062 -23.046875 2.46875 -23.359375 C 2.269531 -23.671875 2.023438 -23.828125 1.734375 -23.828125 L 1.734375 -24.171875 C 2.117188 -24.171875 2.441406 -23.976562 2.703125 -23.59375 C 2.972656 -23.21875 3.109375 -22.835938 3.109375 -22.453125 L 3.109375 -12.265625 L 20.296875 -12.265625 L 20.296875 -24.171875 L 20.65625 -24.171875 L 20.65625 -6.625 C 20.65625 -6.332031 20.664062 -6.039062 20.6875 -5.75 C 20.707031 -5.457031 20.753906 -5.1875 20.828125 -4.9375 C 20.960938 -4.40625 21.296875 -4.019531 21.828125 -3.78125 C 22.359375 -3.539062 22.929688 -3.347656 23.546875 -3.203125 C 24.171875 -3.066406 24.703125 -2.863281 25.140625 -2.59375 C 25.554688 -2.363281 25.785156 -1.984375 25.828125 -1.453125 C 25.878906 -0.921875 25.726562 -0.492188 25.375 -0.171875 C 25.03125 0.171875 24.628906 0.335938 24.171875 0.328125 C 23.710938 0.316406 23.296875 0.148438 22.921875 -0.171875 C 22.046875 -1.003906 21.390625 -2.007812 20.953125 -3.1875 C 20.515625 -4.375 20.296875 -5.519531 20.296875 -6.625 Z M 20.296875 -6.625 "/></g></g></g><g fill="#000000" fill-opacity="1"><g transform="translate(81.09381, 116.634112)"><g><path d="M 20.71875 -0.34375 L 20.71875 0 C 20.351562 0 20.03125 -0.191406 19.75 -0.578125 C 19.476562 -0.972656 19.34375 -1.359375 19.34375 -1.734375 L 19.34375 -8.640625 C 19.34375 -9.710938 19.128906 -10.785156 18.703125 -11.859375 C 18.273438 -12.929688 17.632812 -13.894531 16.78125 -14.75 C 15.925781 -15.59375 14.96875 -16.222656 13.90625 -16.640625 C 12.851562 -17.054688 11.785156 -17.265625 10.703125 -17.265625 C 9.617188 -17.265625 8.546875 -17.054688 7.484375 -16.640625 C 6.429688 -16.222656 5.476562 -15.59375 4.625 -14.75 C 3.769531 -13.894531 3.128906 -12.929688 2.703125 -11.859375 C 2.285156 -10.785156 2.078125 -9.710938 2.078125 -8.640625 C 2.078125 -7.503906 2.285156 -6.410156 2.703125 -5.359375 C 3.128906 -4.316406 3.769531 -3.367188 4.625 -2.515625 C 5.476562 -1.671875 6.429688 -1.039062 7.484375 -0.625 C 8.546875 -0.207031 9.597656 0 10.640625 0 C 10.960938 0 11.257812 -0.0078125 11.53125 -0.03125 C 11.8125 -0.0507812 12.078125 -0.0976562 12.328125 -0.171875 C 12.859375 -0.304688 13.242188 -0.640625 13.484375 -1.171875 C 13.722656 -1.703125 13.914062 -2.273438 14.0625 -2.890625 C 14.21875 -3.515625 14.421875 -4.046875 14.671875 -4.484375 C 14.929688 -4.898438 15.316406 -5.128906 15.828125 -5.171875 C 16.347656 -5.222656 16.769531 -5.078125 17.09375 -4.734375 C 17.4375 -4.390625 17.601562 -3.984375 17.59375 -3.515625 C 17.582031 -3.054688 17.414062 -2.644531 17.09375 -2.28125 C 16.257812 -1.40625 15.25 -0.75 14.0625 -0.3125 C 12.882812 0.125 11.726562 0.34375 10.59375 0.34375 C 9.539062 0.34375 8.460938 0.125 7.359375 -0.3125 C 6.253906 -0.75 5.265625 -1.40625 4.390625 -2.28125 C 3.515625 -3.15625 2.851562 -4.144531 2.40625 -5.25 C 1.957031 -6.351562 1.734375 -7.484375 1.734375 -8.640625 C 1.734375 -9.785156 1.957031 -10.910156 2.40625 -12.015625 C 2.851562 -13.117188 3.515625 -14.109375 4.390625 -14.984375 C 5.265625 -15.859375 6.253906 -16.515625 7.359375 -16.953125 C 8.460938 -17.390625 9.578125 -17.609375 10.703125 -17.609375 C 11.859375 -17.609375 12.984375 -17.390625 14.078125 -16.953125 C 15.171875 -16.515625 16.15625 -15.859375 17.03125 -14.984375 C 17.90625 -14.109375 18.566406 -13.117188 19.015625 -12.015625 C 19.460938 -10.910156 19.6875 -9.785156 19.6875 -8.640625 L 19.6875 -1.734375 C 19.6875 -1.429688 19.78125 -1.125 19.96875 -0.8125 C 20.164062 -0.5 20.414062 -0.34375 20.71875 -0.34375 Z M 20.71875 -0.34375 "/></g></g><g transform="translate(102.506412, 116.634112)"><g><path d="M 3.6875 -5.1875 L 3.34375 -5.1875 L 3.34375 -24.171875 L 3.6875 -24.171875 Z M 4.625 -0.140625 C 4.238281 0.160156 3.816406 0.320312 3.359375 0.34375 C 2.910156 0.363281 2.515625 0.203125 2.171875 -0.140625 C 1.828125 -0.460938 1.6875 -0.875 1.75 -1.375 C 1.820312 -1.882812 2.046875 -2.28125 2.421875 -2.5625 C 2.804688 -2.851562 3.222656 -3.007812 3.671875 -3.03125 C 4.117188 -3.0625 4.519531 -2.90625 4.875 -2.5625 C 5.21875 -2.238281 5.359375 -1.820312 5.296875 -1.3125 C 5.242188 -0.800781 5.019531 -0.410156 4.625 -0.140625 Z M 4.625 -0.140625 "/></g></g></g><g fill="#000000" fill-opacity="1"><g transform="translate(109.551847, 116.634112)"><g><path d="M 20.71875 -0.34375 L 20.71875 0 C 20.351562 0 20.03125 -0.191406 19.75 -0.578125 C 19.476562 -0.972656 19.34375 -1.359375 19.34375 -1.734375 L 19.34375 -8.640625 C 19.34375 -9.710938 19.128906 -10.785156 18.703125 -11.859375 C 18.273438 -12.929688 17.632812 -13.894531 16.78125 -14.75 C 15.925781 -15.59375 14.96875 -16.222656 13.90625 -16.640625 C 12.851562 -17.054688 11.785156 -17.265625 10.703125 -17.265625 C 9.617188 -17.265625 8.546875 -17.054688 7.484375 -16.640625 C 6.429688 -16.222656 5.476562 -15.59375 4.625 -14.75 C 3.769531 -13.894531 3.128906 -12.929688 2.703125 -11.859375 C 2.285156 -10.785156 2.078125 -9.710938 2.078125 -8.640625 C 2.078125 -7.503906 2.285156 -6.410156 2.703125 -5.359375 C 3.128906 -4.316406 3.769531 -3.367188 4.625 -2.515625 C 5.476562 -1.671875 6.429688 -1.039062 7.484375 -0.625 C 8.546875 -0.207031 9.597656 0 10.640625 0 C 10.960938 0 11.257812 -0.0078125 11.53125 -0.03125 C 11.8125 -0.0507812 12.078125 -0.0976562 12.328125 -0.171875 C 12.859375 -0.304688 13.242188 -0.640625 13.484375 -1.171875 C 13.722656 -1.703125 13.914062 -2.273438 14.0625 -2.890625 C 14.21875 -3.515625 14.421875 -4.046875 14.671875 -4.484375 C 14.929688 -4.898438 15.316406 -5.128906 15.828125 -5.171875 C 16.347656 -5.222656 16.769531 -5.078125 17.09375 -4.734375 C 17.4375 -4.390625 17.601562 -3.984375 17.59375 -3.515625 C 17.582031 -3.054688 17.414062 -2.644531 17.09375 -2.28125 C 16.257812 -1.40625 15.25 -0.75 14.0625 -0.3125 C 12.882812 0.125 11.726562 0.34375 10.59375 0.34375 C 9.539062 0.34375 8.460938 0.125 7.359375 -0.3125 C 6.253906 -0.75 5.265625 -1.40625 4.390625 -2.28125 C 3.515625 -3.15625 2.851562 -4.144531 2.40625 -5.25 C 1.957031 -6.351562 1.734375 -7.484375 1.734375 -8.640625 C 1.734375 -9.785156 1.957031 -10.910156 2.40625 -12.015625 C 2.851562 -13.117188 3.515625 -14.109375 4.390625 -14.984375 C 5.265625 -15.859375 6.253906 -16.515625 7.359375 -16.953125 C 8.460938 -17.390625 9.578125 -17.609375 10.703125 -17.609375 C 11.859375 -17.609375 12.984375 -17.390625 14.078125 -16.953125 C 15.171875 -16.515625 16.15625 -15.859375 17.03125 -14.984375 C 17.90625 -14.109375 18.566406 -13.117188 19.015625 -12.015625 C 19.460938 -10.910156 19.6875 -9.785156 19.6875 -8.640625 L 19.6875 -1.734375 C 19.6875 -1.429688 19.78125 -1.125 19.96875 -0.8125 C 20.164062 -0.5 20.414062 -0.34375 20.71875 -0.34375 Z M 20.71875 -0.34375 "/></g></g><g transform="translate(130.96445, 116.634112)"><g><path d="M 1.734375 0 L 1.734375 -11.734375 C 1.734375 -12.722656 1.957031 -13.660156 2.40625 -14.546875 C 2.851562 -15.441406 3.484375 -16.175781 4.296875 -16.75 C 5.117188 -17.320312 6.066406 -17.609375 7.140625 -17.609375 C 7.835938 -17.609375 8.59375 -17.488281 9.40625 -17.25 C 10.226562 -17.007812 11.003906 -16.691406 11.734375 -16.296875 C 12.472656 -15.910156 13.023438 -15.472656 13.390625 -14.984375 C 13.785156 -14.484375 13.953125 -14.015625 13.890625 -13.578125 C 13.835938 -13.140625 13.671875 -12.789062 13.390625 -12.53125 C 13.023438 -12.1875 12.609375 -12.03125 12.140625 -12.0625 C 11.671875 -12.101562 11.285156 -12.34375 10.984375 -12.78125 C 10.796875 -13.050781 10.644531 -13.40625 10.53125 -13.84375 C 10.414062 -14.28125 10.285156 -14.722656 10.140625 -15.171875 C 10.003906 -15.617188 9.820312 -16.019531 9.59375 -16.375 C 9.363281 -16.738281 9.046875 -16.976562 8.640625 -17.09375 C 8.378906 -17.164062 8.101562 -17.210938 7.8125 -17.234375 C 7.53125 -17.253906 7.296875 -17.265625 7.109375 -17.265625 C 6.117188 -17.265625 5.242188 -16.992188 4.484375 -16.453125 C 3.722656 -15.910156 3.128906 -15.21875 2.703125 -14.375 C 2.285156 -13.539062 2.078125 -12.660156 2.078125 -11.734375 L 2.078125 0 Z M 1.734375 0 "/></g></g></g><g fill="#000000" fill-opacity="1"><g transform="translate(145.6079, 116.634112)"><g><path d="M 14.5 -16.921875 L 5.875 -16.921875 L 5.875 -6.59375 C 5.875 -6.289062 5.882812 -5.992188 5.90625 -5.703125 C 5.925781 -5.421875 5.972656 -5.15625 6.046875 -4.90625 C 6.179688 -4.375 6.515625 -3.988281 7.046875 -3.75 C 7.578125 -3.507812 8.148438 -3.316406 8.765625 -3.171875 C 9.390625 -3.035156 9.921875 -2.832031 10.359375 -2.5625 C 10.773438 -2.320312 11.003906 -1.9375 11.046875 -1.40625 C 11.097656 -0.882812 10.945312 -0.460938 10.59375 -0.140625 C 10.25 0.203125 9.847656 0.367188 9.390625 0.359375 C 8.929688 0.347656 8.519531 0.179688 8.15625 -0.140625 C 7.28125 -0.960938 6.625 -1.96875 6.1875 -3.15625 C 5.75 -4.34375 5.53125 -5.488281 5.53125 -6.59375 L 5.53125 -16.921875 L 0.34375 -16.921875 L 0.34375 -17.265625 L 5.53125 -17.265625 L 5.53125 -20.71875 L 5.875 -20.71875 L 5.875 -17.265625 L 14.5 -17.265625 Z M 14.5 -16.921875 "/></g></g></g><g fill="#000000" fill-opacity="1"><g transform="translate(55.536832, 116.634112)"><g><path d="M 20.296875 -6.625 L 20.296875 -11.90625 L 3.109375 -11.90625 L 3.109375 0 L 2.765625 0 L 2.765625 -22.453125 C 2.765625 -22.742188 2.664062 -23.046875 2.46875 -23.359375 C 2.269531 -23.671875 2.023438 -23.828125 1.734375 -23.828125 L 1.734375 -24.171875 C 2.117188 -24.171875 2.441406 -23.976562 2.703125 -23.59375 C 2.972656 -23.21875 3.109375 -22.835938 3.109375 -22.453125 L 3.109375 -12.265625 L 20.296875 -12.265625 L 20.296875 -24.171875 L 20.65625 -24.171875 L 20.65625 -6.625 C 20.65625 -6.332031 20.664062 -6.039062 20.6875 -5.75 C 20.707031 -5.457031 20.753906 -5.1875 20.828125 -4.9375 C 20.960938 -4.40625 21.296875 -4.019531 21.828125 -3.78125 C 22.359375 -3.539062 22.929688 -3.347656 23.546875 -3.203125 C 24.171875 -3.066406 24.703125 -2.863281 25.140625 -2.59375 C 25.554688 -2.363281 25.785156 -1.984375 25.828125 -1.453125 C 25.878906 -0.921875 25.726562 -0.492188 25.375 -0.171875 C 25.03125 0.171875 24.628906 0.335938 24.171875 0.328125 C 23.710938 0.316406 23.296875 0.148438 22.921875 -0.171875 C 22.046875 -1.003906 21.390625 -2.007812 20.953125 -3.1875 C 20.515625 -4.375 20.296875 -5.519531 20.296875 -6.625 Z M 20.296875 -6.625 "/></g></g></g><g fill="#000000" fill-opacity="1"><g transform="translate(81.09381, 116.634112)"><g><path d="M 20.71875 -0.34375 L 20.71875 0 C 20.351562 0 20.03125 -0.191406 19.75 -0.578125 C 19.476562 -0.972656 19.34375 -1.359375 19.34375 -1.734375 L 19.34375 -8.640625 C 19.34375 -9.710938 19.128906 -10.785156 18.703125 -11.859375 C 18.273438 -12.929688 17.632812 -13.894531 16.78125 -14.75 C 15.925781 -15.59375 14.96875 -16.222656 13.90625 -16.640625 C 12.851562 -17.054688 11.785156 -17.265625 10.703125 -17.265625 C 9.617188 -17.265625 8.546875 -17.054688 7.484375 -16.640625 C 6.429688 -16.222656 5.476562 -15.59375 4.625 -14.75 C 3.769531 -13.894531 3.128906 -12.929688 2.703125 -11.859375 C 2.285156 -10.785156 2.078125 -9.710938 2.078125 -8.640625 C 2.078125 -7.503906 2.285156 -6.410156 2.703125 -5.359375 C 3.128906 -4.316406 3.769531 -3.367188 4.625 -2.515625 C 5.476562 -1.671875 6.429688 -1.039062 7.484375 -0.625 C 8.546875 -0.207031 9.597656 0 10.640625 0 C 10.960938 0 11.257812 -0.0078125 11.53125 -0.03125 C 11.8125 -0.0507812 12.078125 -0.0976562 12.328125 -0.171875 C 12.859375 -0.304688 13.242188 -0.640625 13.484375 -1.171875 C 13.722656 -1.703125 13.914062 -2.273438 14.0625 -2.890625 C 14.21875 -3.515625 14.421875 -4.046875 14.671875 -4.484375 C 14.929688 -4.898438 15.316406 -5.128906 15.828125 -5.171875 C 16.347656 -5.222656 16.769531 -5.078125 17.09375 -4.734375 C 17.4375 -4.390625 17.601562 -3.984375 17.59375 -3.515625 C 17.582031 -3.054688 17.414062 -2.644531 17.09375 -2.28125 C 16.257812 -1.40625 15.25 -0.75 14.0625 -0.3125 C 12.882812 0.125 11.726562 0.34375 10.59375 0.34375 C 9.539062 0.34375 8.460938 0.125 7.359375 -0.3125 C 6.253906 -0.75 5.265625 -1.40625 4.390625 -2.28125 C 3.515625 -3.15625 2.851562 -4.144531 2.40625 -5.25 C 1.957031 -6.351562 1.734375 -7.484375 1.734375 -8.640625 C 1.734375 -9.785156 1.957031 -10.910156 2.40625 -12.015625 C 2.851562 -13.117188 3.515625 -14.109375 4.390625 -14.984375 C 5.265625 -15.859375 6.253906 -16.515625 7.359375 -16.953125 C 8.460938 -17.390625 9.578125 -17.609375 10.703125 -17.609375 C 11.859375 -17.609375 12.984375 -17.390625 14.078125 -16.953125 C 15.171875 -16.515625 16.15625 -15.859375 17.03125 -14.984375 C 17.90625 -14.109375 18.566406 -13.117188 19.015625 -12.015625 C 19.460938 -10.910156 19.6875 -9.785156 19.6875 -8.640625 L 19.6875 -1.734375 C 19.6875 -1.429688 19.78125 -1.125 19.96875 -0.8125 C 20.164062 -0.5 20.414062 -0.34375 20.71875 -0.34375 Z M 20.71875 -0.34375 "/></g></g><g transform="translate(102.506412, 116.634112)"><g><path d="M 3.6875 -5.1875 L 3.34375 -5.1875 L 3.34375 -24.171875 L 3.6875 -24.171875 Z M 4.625 -0.140625 C 4.238281 0.160156 3.816406 0.320312 3.359375 0.34375 C 2.910156 0.363281 2.515625 0.203125 2.171875 -0.140625 C 1.828125 -0.460938 1.6875 -0.875 1.75 -1.375 C 1.820312 -1.882812 2.046875 -2.28125 2.421875 -2.5625 C 2.804688 -2.851562 3.222656 -3.007812 3.671875 -3.03125 C 4.117188 -3.0625 4.519531 -2.90625 4.875 -2.5625 C 5.21875 -2.238281 5.359375 -1.820312 5.296875 -1.3125 C 5.242188 -0.800781 5.019531 -0.410156 4.625 -0.140625 Z M 4.625 -0.140625 "/></g></g></g><g fill="#000000" fill-opacity="1"><g transform="translate(109.551847, 116.634112)"><g><path d="M 20.71875 -0.34375 L 20.71875 0 C 20.351562 0 20.03125 -0.191406 19.75 -0.578125 C 19.476562 -0.972656 19.34375 -1.359375 19.34375 -1.734375 L 19.34375 -8.640625 C 19.34375 -9.710938 19.128906 -10.785156 18.703125 -11.859375 C 18.273438 -12.929688 17.632812 -13.894531 16.78125 -14.75 C 15.925781 -15.59375 14.96875 -16.222656 13.90625 -16.640625 C 12.851562 -17.054688 11.785156 -17.265625 10.703125 -17.265625 C 9.617188 -17.265625 8.546875 -17.054688 7.484375 -16.640625 C 6.429688 -16.222656 5.476562 -15.59375 4.625 -14.75 C 3.769531 -13.894531 3.128906 -12.929688 2.703125 -11.859375 C 2.285156 -10.785156 2.078125 -9.710938 2.078125 -8.640625 C 2.078125 -7.503906 2.285156 -6.410156 2.703125 -5.359375 C 3.128906 -4.316406 3.769531 -3.367188 4.625 -2.515625 C 5.476562 -1.671875 6.429688 -1.039062 7.484375 -0.625 C 8.546875 -0.207031 9.597656 0 10.640625 0 C 10.960938 0 11.257812 -0.0078125 11.53125 -0.03125 C 11.8125 -0.0507812 12.078125 -0.0976562 12.328125 -0.171875 C 12.859375 -0.304688 13.242188 -0.640625 13.484375 -1.171875 C 13.722656 -1.703125 13.914062 -2.273438 14.0625 -2.890625 C 14.21875 -3.515625 14.421875 -4.046875 14.671875 -4.484375 C 14.929688 -4.898438 15.316406 -5.128906 15.828125 -5.171875 C 16.347656 -5.222656 16.769531 -5.078125 17.09375 -4.734375 C 17.4375 -4.390625 17.601562 -3.984375 17.59375 -3.515625 C 17.582031 -3.054688 17.414062 -2.644531 17.09375 -2.28125 C 16.257812 -1.40625 15.25 -0.75 14.0625 -0.3125 C 12.882812 0.125 11.726562 0.34375 10.59375 0.34375 C 9.539062 0.34375 8.460938 0.125 7.359375 -0.3125 C 6.253906 -0.75 5.265625 -1.40625 4.390625 -2.28125 C 3.515625 -3.15625 2.851562 -4.144531 2.40625 -5.25 C 1.957031 -6.351562 1.734375 -7.484375 1.734375 -8.640625 C 1.734375 -9.785156 1.957031 -10.910156 2.40625 -12.015625 C 2.851562 -13.117188 3.515625 -14.109375 4.390625 -14.984375 C 5.265625 -15.859375 6.253906 -16.515625 7.359375 -16.953125 C 8.460938 -17.390625 9.578125 -17.609375 10.703125 -17.609375 C 11.859375 -17.609375 12.984375 -17.390625 14.078125 -16.953125 C 15.171875 -16.515625 16.15625 -15.859375 17.03125 -14.984375 C 17.90625 -14.109375 18.566406 -13.117188 19.015625 -12.015625 C 19.460938 -10.910156 19.6875 -9.785156 19.6875 -8.640625 L 19.6875 -1.734375 C 19.6875 -1.429688 19.78125 -1.125 19.96875 -0.8125 C 20.164062 -0.5 20.414062 -0.34375 20.71875 -0.34375 Z M 20.71875 -0.34375 "/></g></g><g transform="translate(130.96445, 116.634112)"><g><path d="M 1.734375 0 L 1.734375 -11.734375 C 1.734375 -12.722656 1.957031 -13.660156 2.40625 -14.546875 C 2.851562 -15.441406 3.484375 -16.175781 4.296875 -16.75 C 5.117188 -17.320312 6.066406 -17.609375 7.140625 -17.609375 C 7.835938 -17.609375 8.59375 -17.488281 9.40625 -17.25 C 10.226562 -17.007812 11.003906 -16.691406 11.734375 -16.296875 C 12.472656 -15.910156 13.023438 -15.472656 13.390625 -14.984375 C 13.785156 -14.484375 13.953125 -14.015625 13.890625 -13.578125 C 13.835938 -13.140625 13.671875 -12.789062 13.390625 -12.53125 C 13.023438 -12.1875 12.609375 -12.03125 12.140625 -12.0625 C 11.671875 -12.101562 11.285156 -12.34375 10.984375 -12.78125 C 10.796875 -13.050781 10.644531 -13.40625 10.53125 -13.84375 C 10.414062 -14.28125 10.285156 -14.722656 10.140625 -15.171875 C 10.003906 -15.617188 9.820312 -16.019531 9.59375 -16.375 C 9.363281 -16.738281 9.046875 -16.976562 8.640625 -17.09375 C 8.378906 -17.164062 8.101562 -17.210938 7.8125 -17.234375 C 7.53125 -17.253906 7.296875 -17.265625 7.109375 -17.265625 C 6.117188 -17.265625 5.242188 -16.992188 4.484375 -16.453125 C 3.722656 -15.910156 3.128906 -15.21875 2.703125 -14.375 C 2.285156 -13.539062 2.078125 -12.660156 2.078125 -11.734375 L 2.078125 0 Z M 1.734375 0 "/></g></g></g><g fill="#000000" fill-opacity="1"><g transform="translate(145.6079, 116.634112)"><g><path d="M 14.5 -16.921875 L 5.875 -16.921875 L 5.875 -6.59375 C 5.875 -6.289062 5.882812 -5.992188 5.90625 -5.703125 C 5.925781 -5.421875 5.972656 -5.15625 6.046875 -4.90625 C 6.179688 -4.375 6.515625 -3.988281 7.046875 -3.75 C 7.578125 -3.507812 8.148438 -3.316406 8.765625 -3.171875 C 9.390625 -3.035156 9.921875 -2.832031 10.359375 -2.5625 C 10.773438 -2.320312 11.003906 -1.9375 11.046875 -1.40625 C 11.097656 -0.882812 10.945312 -0.460938 10.59375 -0.140625 C 10.25 0.203125 9.847656 0.367188 9.390625 0.359375 C 8.929688 0.347656 8.519531 0.179688 8.15625 -0.140625 C 7.28125 -0.960938 6.625 -1.96875 6.1875 -3.15625 C 5.75 -4.34375 5.53125 -5.488281 5.53125 -6.59375 L 5.53125 -16.921875 L 0.34375 -16.921875 L 0.34375 -17.265625 L 5.53125 -17.265625 L 5.53125 -20.71875 L 5.875 -20.71875 L 5.875 -17.265625 L 14.5 -17.265625 Z M 14.5 -16.921875 "/></g></g></g><g fill="#000000" fill-opacity="1"><g transform="translate(55.536832, 116.634112)"><g><path d="M 20.296875 -6.625 L 20.296875 -11.90625 L 3.109375 -11.90625 L 3.109375 0 L 2.765625 0 L 2.765625 -22.453125 C 2.765625 -22.742188 2.664062 -23.046875 2.46875 -23.359375 C 2.269531 -23.671875 2.023438 -23.828125 1.734375 -23.828125 L 1.734375 -24.171875 C 2.117188 -24.171875 2.441406 -23.976562 2.703125 -23.59375 C 2.972656 -23.21875 3.109375 -22.835938 3.109375 -22.453125 L 3.109375 -12.265625 L 20.296875 -12.265625 L 20.296875 -24.171875 L 20.65625 -24.171875 L 20.65625 -6.625 C 20.65625 -6.332031 20.664062 -6.039062 20.6875 -5.75 C 20.707031 -5.457031 20.753906 -5.1875 20.828125 -4.9375 C 20.960938 -4.40625 21.296875 -4.019531 21.828125 -3.78125 C 22.359375 -3.539062 22.929688 -3.347656 23.546875 -3.203125 C 24.171875 -3.066406 24.703125 -2.863281 25.140625 -2.59375 C 25.554688 -2.363281 25.785156 -1.984375 25.828125 -1.453125 C 25.878906 -0.921875 25.726562 -0.492188 25.375 -0.171875 C 25.03125 0.171875 24.628906 0.335938 24.171875 0.328125 C 23.710938 0.316406 23.296875 0.148438 22.921875 -0.171875 C 22.046875 -1.003906 21.390625 -2.007812 20.953125 -3.1875 C 20.515625 -4.375 20.296875 -5.519531 20.296875 -6.625 Z M 20.296875 -6.625 "/></g></g></g><g fill="#000000" fill-opacity="1"><g transform="translate(81.09381, 116.634112)"><g><path d="M 20.71875 -0.34375 L 20.71875 0 C 20.351562 0 20.03125 -0.191406 19.75 -0.578125 C 19.476562 -0.972656 19.34375 -1.359375 19.34375 -1.734375 L 19.34375 -8.640625 C 19.34375 -9.710938 19.128906 -10.785156 18.703125 -11.859375 C 18.273438 -12.929688 17.632812 -13.894531 16.78125 -14.75 C 15.925781 -15.59375 14.96875 -16.222656 13.90625 -16.640625 C 12.851562 -17.054688 11.785156 -17.265625 10.703125 -17.265625 C 9.617188 -17.265625 8.546875 -17.054688 7.484375 -16.640625 C 6.429688 -16.222656 5.476562 -15.59375 4.625 -14.75 C 3.769531 -13.894531 3.128906 -12.929688 2.703125 -11.859375 C 2.285156 -10.785156 2.078125 -9.710938 2.078125 -8.640625 C 2.078125 -7.503906 2.285156 -6.410156 2.703125 -5.359375 C 3.128906 -4.316406 3.769531 -3.367188 4.625 -2.515625 C 5.476562 -1.671875 6.429688 -1.039062 7.484375 -0.625 C 8.546875 -0.207031 9.597656 0 10.640625 0 C 10.960938 0 11.257812 -0.0078125 11.53125 -0.03125 C 11.8125 -0.0507812 12.078125 -0.0976562 12.328125 -0.171875 C 12.859375 -0.304688 13.242188 -0.640625 13.484375 -1.171875 C 13.722656 -1.703125 13.914062 -2.273438 14.0625 -2.890625 C 14.21875 -3.515625 14.421875 -4.046875 14.671875 -4.484375 C 14.929688 -4.898438 15.316406 -5.128906 15.828125 -5.171875 C 16.347656 -5.222656 16.769531 -5.078125 17.09375 -4.734375 C 17.4375 -4.390625 17.601562 -3.984375 17.59375 -3.515625 C 17.582031 -3.054688 17.414062 -2.644531 17.09375 -2.28125 C 16.257812 -1.40625 15.25 -0.75 14.0625 -0.3125 C 12.882812 0.125 11.726562 0.34375 10.59375 0.34375 C 9.539062 0.34375 8.460938 0.125 7.359375 -0.3125 C 6.253906 -0.75 5.265625 -1.40625 4.390625 -2.28125 C 3.515625 -3.15625 2.851562 -4.144531 2.40625 -5.25 C 1.957031 -6.351562 1.734375 -7.484375 1.734375 -8.640625 C 1.734375 -9.785156 1.957031 -10.910156 2.40625 -12.015625 C 2.851562 -13.117188 3.515625 -14.109375 4.390625 -14.984375 C 5.265625 -15.859375 6.253906 -16.515625 7.359375 -16.953125 C 8.460938 -17.390625 9.578125 -17.609375 10.703125 -17.609375 C 11.859375 -17.609375 12.984375 -17.390625 14.078125 -16.953125 C 15.171875 -16.515625 16.15625 -15.859375 17.03125 -14.984375 C 17.90625 -14.109375 18.566406 -13.117188 19.015625 -12.015625 C 19.460938 -10.910156 19.6875 -9.785156 19.6875 -8.640625 L 19.6875 -1.734375 C 19.6875 -1.429688 19.78125 -1.125 19.96875 -0.8125 C 20.164062 -0.5 20.414062 -0.34375 20.71875 -0.34375 Z M 20.71875 -0.34375 "/></g></g><g transform="translate(102.506412, 116.634112)"><g><path d="M 3.6875 -5.1875 L 3.34375 -5.1875 L 3.34375 -24.171875 L 3.6875 -24.171875 Z M 4.625 -0.140625 C 4.238281 0.160156 3.816406 0.320312 3.359375 0.34375 C 2.910156 0.363281 2.515625 0.203125 2.171875 -0.140625 C 1.828125 -0.460938 1.6875 -0.875 1.75 -1.375 C 1.820312 -1.882812 2.046875 -2.28125 2.421875 -2.5625 C 2.804688 -2.851562 3.222656 -3.007812 3.671875 -3.03125 C 4.117188 -3.0625 4.519531 -2.90625 4.875 -2.5625 C 5.21875 -2.238281 5.359375 -1.820312 5.296875 -1.3125 C 5.242188 -0.800781 5.019531 -0.410156 4.625 -0.140625 Z M 4.625 -0.140625 "/></g></g></g><g fill="#000000" fill-opacity="1"><g transform="translate(109.551847, 116.634112)"><g><path d="M 20.71875 -0.34375 L 20.71875 0 C 20.351562 0 20.03125 -0.191406 19.75 -0.578125 C 19.476562 -0.972656 19.34375 -1.359375 19.34375 -1.734375 L 19.34375 -8.640625 C 19.34375 -9.710938 19.128906 -10.785156 18.703125 -11.859375 C 18.273438 -12.929688 17.632812 -13.894531 16.78125 -14.75 C 15.925781 -15.59375 14.96875 -16.222656 13.90625 -16.640625 C 12.851562 -17.054688 11.785156 -17.265625 10.703125 -17.265625 C 9.617188 -17.265625 8.546875 -17.054688 7.484375 -16.640625 C 6.429688 -16.222656 5.476562 -15.59375 4.625 -14.75 C 3.769531 -13.894531 3.128906 -12.929688 2.703125 -11.859375 C 2.285156 -10.785156 2.078125 -9.710938 2.078125 -8.640625 C 2.078125 -7.503906 2.285156 -6.410156 2.703125 -5.359375 C 3.128906 -4.316406 3.769531 -3.367188 4.625 -2.515625 C 5.476562 -1.671875 6.429688 -1.039062 7.484375 -0.625 C 8.546875 -0.207031 9.597656 0 10.640625 0 C 10.960938 0 11.257812 -0.0078125 11.53125 -0.03125 C 11.8125 -0.0507812 12.078125 -0.0976562 12.328125 -0.171875 C 12.859375 -0.304688 13.242188 -0.640625 13.484375 -1.171875 C 13.722656 -1.703125 13.914062 -2.273438 14.0625 -2.890625 C 14.21875 -3.515625 14.421875 -4.046875 14.671875 -4.484375 C 14.929688 -4.898438 15.316406 -5.128906 15.828125 -5.171875 C 16.347656 -5.222656 16.769531 -5.078125 17.09375 -4.734375 C 17.4375 -4.390625 17.601562 -3.984375 17.59375 -3.515625 C 17.582031 -3.054688 17.414062 -2.644531 17.09375 -2.28125 C 16.257812 -1.40625 15.25 -0.75 14.0625 -0.3125 C 12.882812 0.125 11.726562 0.34375 10.59375 0.34375 C 9.539062 0.34375 8.460938 0.125 7.359375 -0.3125 C 6.253906 -0.75 5.265625 -1.40625 4.390625 -2.28125 C 3.515625 -3.15625 2.851562 -4.144531 2.40625 -5.25 C 1.957031 -6.351562 1.734375 -7.484375 1.734375 -8.640625 C 1.734375 -9.785156 1.957031 -10.910156 2.40625 -12.015625 C 2.851562 -13.117188 3.515625 -14.109375 4.390625 -14.984375 C 5.265625 -15.859375 6.253906 -16.515625 7.359375 -16.953125 C 8.460938 -17.390625 9.578125 -17.609375 10.703125 -17.609375 C 11.859375 -17.609375 12.984375 -17.390625 14.078125 -16.953125 C 15.171875 -16.515625 16.15625 -15.859375 17.03125 -14.984375 C 17.90625 -14.109375 18.566406 -13.117188 19.015625 -12.015625 C 19.460938 -10.910156 19.6875 -9.785156 19.6875 -8.640625 L 19.6875 -1.734375 C 19.6875 -1.429688 19.78125 -1.125 19.96875 -0.8125 C 20.164062 -0.5 20.414062 -0.34375 20.71875 -0.34375 Z M 20.71875 -0.34375 "/></g></g><g transform="translate(130.96445, 116.634112)"><g><path d="M 1.734375 0 L 1.734375 -11.734375 C 1.734375 -12.722656 1.957031 -13.660156 2.40625 -14.546875 C 2.851562 -15.441406 3.484375 -16.175781 4.296875 -16.75 C 5.117188 -17.320312 6.066406 -17.609375 7.140625 -17.609375 C 7.835938 -17.609375 8.59375 -17.488281 9.40625 -17.25 C 10.226562 -17.007812 11.003906 -16.691406 11.734375 -16.296875 C 12.472656 -15.910156 13.023438 -15.472656 13.390625 -14.984375 C 13.785156 -14.484375 13.953125 -14.015625 13.890625 -13.578125 C 13.835938 -13.140625 13.671875 -12.789062 13.390625 -12.53125 C 13.023438 -12.1875 12.609375 -12.03125 12.140625 -12.0625 C 11.671875 -12.101562 11.285156 -12.34375 10.984375 -12.78125 C 10.796875 -13.050781 10.644531 -13.40625 10.53125 -13.84375 C 10.414062 -14.28125 10.285156 -14.722656 10.140625 -15.171875 C 10.003906 -15.617188 9.820312 -16.019531 9.59375 -16.375 C 9.363281 -16.738281 9.046875 -16.976562 8.640625 -17.09375 C 8.378906 -17.164062 8.101562 -17.210938 7.8125 -17.234375 C 7.53125 -17.253906 7.296875 -17.265625 7.109375 -17.265625 C 6.117188 -17.265625 5.242188 -16.992188 4.484375 -16.453125 C 3.722656 -15.910156 3.128906 -15.21875 2.703125 -14.375 C 2.285156 -13.539062 2.078125 -12.660156 2.078125 -11.734375 L 2.078125 0 Z M 1.734375 0 "/></g></g></g><g fill="#000000" fill-opacity="1"><g transform="translate(145.6079, 116.634112)"><g><path d="M 14.5 -16.921875 L 5.875 -16.921875 L 5.875 -6.59375 C 5.875 -6.289062 5.882812 -5.992188 5.90625 -5.703125 C 5.925781 -5.421875 5.972656 -5.15625 6.046875 -4.90625 C 6.179688 -4.375 6.515625 -3.988281 7.046875 -3.75 C 7.578125 -3.507812 8.148438 -3.316406 8.765625 -3.171875 C 9.390625 -3.035156 9.921875 -2.832031 10.359375 -2.5625 C 10.773438 -2.320312 11.003906 -1.9375 11.046875 -1.40625 C 11.097656 -0.882812 10.945312 -0.460938 10.59375 -0.140625 C 10.25 0.203125 9.847656 0.367188 9.390625 0.359375 C 8.929688 0.347656 8.519531 0.179688 8.15625 -0.140625 C 7.28125 -0.960938 6.625 -1.96875 6.1875 -3.15625 C 5.75 -4.34375 5.53125 -5.488281 5.53125 -6.59375 L 5.53125 -16.921875 L 0.34375 -16.921875 L 0.34375 -17.265625 L 5.53125 -17.265625 L 5.53125 -20.71875 L 5.875 -20.71875 L 5.875 -17.265625 L 14.5 -17.265625 Z M 14.5 -16.921875 "/></g></g></g><g fill="#000000" fill-opacity="1"><g transform="translate(55.536832, 116.634112)"><g><path d="M 20.296875 -6.625 L 20.296875 -11.90625 L 3.109375 -11.90625 L 3.109375 0 L 2.765625 0 L 2.765625 -22.453125 C 2.765625 -22.742188 2.664062 -23.046875 2.46875 -23.359375 C 2.269531 -23.671875 2.023438 -23.828125 1.734375 -23.828125 L 1.734375 -24.171875 C 2.117188 -24.171875 2.441406 -23.976562 2.703125 -23.59375 C 2.972656 -23.21875 3.109375 -22.835938 3.109375 -22.453125 L 3.109375 -12.265625 L 20.296875 -12.265625 L 20.296875 -24.171875 L 20.65625 -24.171875 L 20.65625 -6.625 C 20.65625 -6.332031 20.664062 -6.039062 20.6875 -5.75 C 20.707031 -5.457031 20.753906 -5.1875 20.828125 -4.9375 C 20.960938 -4.40625 21.296875 -4.019531 21.828125 -3.78125 C 22.359375 -3.539062 22.929688 -3.347656 23.546875 -3.203125 C 24.171875 -3.066406 24.703125 -2.863281 25.140625 -2.59375 C 25.554688 -2.363281 25.785156 -1.984375 25.828125 -1.453125 C 25.878906 -0.921875 25.726562 -0.492188 25.375 -0.171875 C 25.03125 0.171875 24.628906 0.335938 24.171875 0.328125 C 23.710938 0.316406 23.296875 0.148438 22.921875 -0.171875 C 22.046875 -1.003906 21.390625 -2.007812 20.953125 -3.1875 C 20.515625 -4.375 20.296875 -5.519531 20.296875 -6.625 Z M 20.296875 -6.625 "/></g></g></g><g fill="#000000" fill-opacity="1"><g transform="translate(81.09381, 116.634112)"><g><path d="M 20.71875 -0.34375 L 20.71875 0 C 20.351562 0 20.03125 -0.191406 19.75 -0.578125 C 19.476562 -0.972656 19.34375 -1.359375 19.34375 -1.734375 L 19.34375 -8.640625 C 19.34375 -9.710938 19.128906 -10.785156 18.703125 -11.859375 C 18.273438 -12.929688 17.632812 -13.894531 16.78125 -14.75 C 15.925781 -15.59375 14.96875 -16.222656 13.90625 -16.640625 C 12.851562 -17.054688 11.785156 -17.265625 10.703125 -17.265625 C 9.617188 -17.265625 8.546875 -17.054688 7.484375 -16.640625 C 6.429688 -16.222656 5.476562 -15.59375 4.625 -14.75 C 3.769531 -13.894531 3.128906 -12.929688 2.703125 -11.859375 C 2.285156 -10.785156 2.078125 -9.710938 2.078125 -8.640625 C 2.078125 -7.503906 2.285156 -6.410156 2.703125 -5.359375 C 3.128906 -4.316406 3.769531 -3.367188 4.625 -2.515625 C 5.476562 -1.671875 6.429688 -1.039062 7.484375 -0.625 C 8.546875 -0.207031 9.597656 0 10.640625 0 C 10.960938 0 11.257812 -0.0078125 11.53125 -0.03125 C 11.8125 -0.0507812 12.078125 -0.0976562 12.328125 -0.171875 C 12.859375 -0.304688 13.242188 -0.640625 13.484375 -1.171875 C 13.722656 -1.703125 13.914062 -2.273438 14.0625 -2.890625 C 14.21875 -3.515625 14.421875 -4.046875 14.671875 -4.484375 C 14.929688 -4.898438 15.316406 -5.128906 15.828125 -5.171875 C 16.347656 -5.222656 16.769531 -5.078125 17.09375 -4.734375 C 17.4375 -4.390625 17.601562 -3.984375 17.59375 -3.515625 C 17.582031 -3.054688 17.414062 -2.644531 17.09375 -2.28125 C 16.257812 -1.40625 15.25 -0.75 14.0625 -0.3125 C 12.882812 0.125 11.726562 0.34375 10.59375 0.34375 C 9.539062 0.34375 8.460938 0.125 7.359375 -0.3125 C 6.253906 -0.75 5.265625 -1.40625 4.390625 -2.28125 C 3.515625 -3.15625 2.851562 -4.144531 2.40625 -5.25 C 1.957031 -6.351562 1.734375 -7.484375 1.734375 -8.640625 C 1.734375 -9.785156 1.957031 -10.910156 2.40625 -12.015625 C 2.851562 -13.117188 3.515625 -14.109375 4.390625 -14.984375 C 5.265625 -15.859375 6.253906 -16.515625 7.359375 -16.953125 C 8.460938 -17.390625 9.578125 -17.609375 10.703125 -17.609375 C 11.859375 -17.609375 12.984375 -17.390625 14.078125 -16.953125 C 15.171875 -16.515625 16.15625 -15.859375 17.03125 -14.984375 C 17.90625 -14.109375 18.566406 -13.117188 19.015625 -12.015625 C 19.460938 -10.910156 19.6875 -9.785156 19.6875 -8.640625 L 19.6875 -1.734375 C 19.6875 -1.429688 19.78125 -1.125 19.96875 -0.8125 C 20.164062 -0.5 20.414062 -0.34375 20.71875 -0.34375 Z M 20.71875 -0.34375 "/></g></g><g transform="translate(102.506412, 116.634112)"><g><path d="M 3.6875 -5.1875 L 3.34375 -5.1875 L 3.34375 -24.171875 L 3.6875 -24.171875 Z M 4.625 -0.140625 C 4.238281 0.160156 3.816406 0.320312 3.359375 0.34375 C 2.910156 0.363281 2.515625 0.203125 2.171875 -0.140625 C 1.828125 -0.460938 1.6875 -0.875 1.75 -1.375 C 1.820312 -1.882812 2.046875 -2.28125 2.421875 -2.5625 C 2.804688 -2.851562 3.222656 -3.007812 3.671875 -3.03125 C 4.117188 -3.0625 4.519531 -2.90625 4.875 -2.5625 C 5.21875 -2.238281 5.359375 -1.820312 5.296875 -1.3125 C 5.242188 -0.800781 5.019531 -0.410156 4.625 -0.140625 Z M 4.625 -0.140625 "/></g></g></g><g fill="#000000" fill-opacity="1"><g transform="translate(109.551847, 116.634112)"><g><path d="M 20.71875 -0.34375 L 20.71875 0 C 20.351562 0 20.03125 -0.191406 19.75 -0.578125 C 19.476562 -0.972656 19.34375 -1.359375 19.34375 -1.734375 L 19.34375 -8.640625 C 19.34375 -9.710938 19.128906 -10.785156 18.703125 -11.859375 C 18.273438 -12.929688 17.632812 -13.894531 16.78125 -14.75 C 15.925781 -15.59375 14.96875 -16.222656 13.90625 -16.640625 C 12.851562 -17.054688 11.785156 -17.265625 10.703125 -17.265625 C 9.617188 -17.265625 8.546875 -17.054688 7.484375 -16.640625 C 6.429688 -16.222656 5.476562 -15.59375 4.625 -14.75 C 3.769531 -13.894531 3.128906 -12.929688 2.703125 -11.859375 C 2.285156 -10.785156 2.078125 -9.710938 2.078125 -8.640625 C 2.078125 -7.503906 2.285156 -6.410156 2.703125 -5.359375 C 3.128906 -4.316406 3.769531 -3.367188 4.625 -2.515625 C 5.476562 -1.671875 6.429688 -1.039062 7.484375 -0.625 C 8.546875 -0.207031 9.597656 0 10.640625 0 C 10.960938 0 11.257812 -0.0078125 11.53125 -0.03125 C 11.8125 -0.0507812 12.078125 -0.0976562 12.328125 -0.171875 C 12.859375 -0.304688 13.242188 -0.640625 13.484375 -1.171875 C 13.722656 -1.703125 13.914062 -2.273438 14.0625 -2.890625 C 14.21875 -3.515625 14.421875 -4.046875 14.671875 -4.484375 C 14.929688 -4.898438 15.316406 -5.128906 15.828125 -5.171875 C 16.347656 -5.222656 16.769531 -5.078125 17.09375 -4.734375 C 17.4375 -4.390625 17.601562 -3.984375 17.59375 -3.515625 C 17.582031 -3.054688 17.414062 -2.644531 17.09375 -2.28125 C 16.257812 -1.40625 15.25 -0.75 14.0625 -0.3125 C 12.882812 0.125 11.726562 0.34375 10.59375 0.34375 C 9.539062 0.34375 8.460938 0.125 7.359375 -0.3125 C 6.253906 -0.75 5.265625 -1.40625 4.390625 -2.28125 C 3.515625 -3.15625 2.851562 -4.144531 2.40625 -5.25 C 1.957031 -6.351562 1.734375 -7.484375 1.734375 -8.640625 C 1.734375 -9.785156 1.957031 -10.910156 2.40625 -12.015625 C 2.851562 -13.117188 3.515625 -14.109375 4.390625 -14.984375 C 5.265625 -15.859375 6.253906 -16.515625 7.359375 -16.953125 C 8.460938 -17.390625 9.578125 -17.609375 10.703125 -17.609375 C 11.859375 -17.609375 12.984375 -17.390625 14.078125 -16.953125 C 15.171875 -16.515625 16.15625 -15.859375 17.03125 -14.984375 C 17.90625 -14.109375 18.566406 -13.117188 19.015625 -12.015625 C 19.460938 -10.910156 19.6875 -9.785156 19.6875 -8.640625 L 19.6875 -1.734375 C 19.6875 -1.429688 19.78125 -1.125 19.96875 -0.8125 C 20.164062 -0.5 20.414062 -0.34375 20.71875 -0.34375 Z M 20.71875 -0.34375 "/></g></g><g transform="translate(130.96445, 116.634112)"><g><path d="M 1.734375 0 L 1.734375 -11.734375 C 1.734375 -12.722656 1.957031 -13.660156 2.40625 -14.546875 C 2.851562 -15.441406 3.484375 -16.175781 4.296875 -16.75 C 5.117188 -17.320312 6.066406 -17.609375 7.140625 -17.609375 C 7.835938 -17.609375 8.59375 -17.488281 9.40625 -17.25 C 10.226562 -17.007812 11.003906 -16.691406 11.734375 -16.296875 C 12.472656 -15.910156 13.023438 -15.472656 13.390625 -14.984375 C 13.785156 -14.484375 13.953125 -14.015625 13.890625 -13.578125 C 13.835938 -13.140625 13.671875 -12.789062 13.390625 -12.53125 C 13.023438 -12.1875 12.609375 -12.03125 12.140625 -12.0625 C 11.671875 -12.101562 11.285156 -12.34375 10.984375 -12.78125 C 10.796875 -13.050781 10.644531 -13.40625 10.53125 -13.84375 C 10.414062 -14.28125 10.285156 -14.722656 10.140625 -15.171875 C 10.003906 -15.617188 9.820312 -16.019531 9.59375 -16.375 C 9.363281 -16.738281 9.046875 -16.976562 8.640625 -17.09375 C 8.378906 -17.164062 8.101562 -17.210938 7.8125 -17.234375 C 7.53125 -17.253906 7.296875 -17.265625 7.109375 -17.265625 C 6.117188 -17.265625 5.242188 -16.992188 4.484375 -16.453125 C 3.722656 -15.910156 3.128906 -15.21875 2.703125 -14.375 C 2.285156 -13.539062 2.078125 -12.660156 2.078125 -11.734375 L 2.078125 0 Z M 1.734375 0 "/></g></g></g><g fill="#000000" fill-opacity="1"><g transform="translate(145.6079, 116.634112)"><g><path d="M 14.5 -16.921875 L 5.875 -16.921875 L 5.875 -6.59375 C 5.875 -6.289062 5.882812 -5.992188 5.90625 -5.703125 C 5.925781 -5.421875 5.972656 -5.15625 6.046875 -4.90625 C 6.179688 -4.375 6.515625 -3.988281 7.046875 -3.75 C 7.578125 -3.507812 8.148438 -3.316406 8.765625 -3.171875 C 9.390625 -3.035156 9.921875 -2.832031 10.359375 -2.5625 C 10.773438 -2.320312 11.003906 -1.9375 11.046875 -1.40625 C 11.097656 -0.882812 10.945312 -0.460938 10.59375 -0.140625 C 10.25 0.203125 9.847656 0.367188 9.390625 0.359375 C 8.929688 0.347656 8.519531 0.179688 8.15625 -0.140625 C 7.28125 -0.960938 6.625 -1.96875 6.1875 -3.15625 C 5.75 -4.34375 5.53125 -5.488281 5.53125 -6.59375 L 5.53125 -16.921875 L 0.34375 -16.921875 L 0.34375 -17.265625 L 5.53125 -17.265625 L 5.53125 -20.71875 L 5.875 -20.71875 L 5.875 -17.265625 L 14.5 -17.265625 Z M 14.5 -16.921875 "/></g></g></g><g fill="#000000" fill-opacity="1"><g transform="translate(55.536832, 116.634112)"><g><path d="M 20.296875 -6.625 L 20.296875 -11.90625 L 3.109375 -11.90625 L 3.109375 0 L 2.765625 0 L 2.765625 -22.453125 C 2.765625 -22.742188 2.664062 -23.046875 2.46875 -23.359375 C 2.269531 -23.671875 2.023438 -23.828125 1.734375 -23.828125 L 1.734375 -24.171875 C 2.117188 -24.171875 2.441406 -23.976562 2.703125 -23.59375 C 2.972656 -23.21875 3.109375 -22.835938 3.109375 -22.453125 L 3.109375 -12.265625 L 20.296875 -12.265625 L 20.296875 -24.171875 L 20.65625 -24.171875 L 20.65625 -6.625 C 20.65625 -6.332031 20.664062 -6.039062 20.6875 -5.75 C 20.707031 -5.457031 20.753906 -5.1875 20.828125 -4.9375 C 20.960938 -4.40625 21.296875 -4.019531 21.828125 -3.78125 C 22.359375 -3.539062 22.929688 -3.347656 23.546875 -3.203125 C 24.171875 -3.066406 24.703125 -2.863281 25.140625 -2.59375 C 25.554688 -2.363281 25.785156 -1.984375 25.828125 -1.453125 C 25.878906 -0.921875 25.726562 -0.492188 25.375 -0.171875 C 25.03125 0.171875 24.628906 0.335938 24.171875 0.328125 C 23.710938 0.316406 23.296875 0.148438 22.921875 -0.171875 C 22.046875 -1.003906 21.390625 -2.007812 20.953125 -3.1875 C 20.515625 -4.375 20.296875 -5.519531 20.296875 -6.625 Z M 20.296875 -6.625 "/></g></g></g><g fill="#000000" fill-opacity="1"><g transform="translate(81.09381, 116.634112)"><g><path d="M 20.71875 -0.34375 L 20.71875 0 C 20.351562 0 20.03125 -0.191406 19.75 -0.578125 C 19.476562 -0.972656 19.34375 -1.359375 19.34375 -1.734375 L 19.34375 -8.640625 C 19.34375 -9.710938 19.128906 -10.785156 18.703125 -11.859375 C 18.273438 -12.929688 17.632812 -13.894531 16.78125 -14.75 C 15.925781 -15.59375 14.96875 -16.222656 13.90625 -16.640625 C 12.851562 -17.054688 11.785156 -17.265625 10.703125 -17.265625 C 9.617188 -17.265625 8.546875 -17.054688 7.484375 -16.640625 C 6.429688 -16.222656 5.476562 -15.59375 4.625 -14.75 C 3.769531 -13.894531 3.128906 -12.929688 2.703125 -11.859375 C 2.285156 -10.785156 2.078125 -9.710938 2.078125 -8.640625 C 2.078125 -7.503906 2.285156 -6.410156 2.703125 -5.359375 C 3.128906 -4.316406 3.769531 -3.367188 4.625 -2.515625 C 5.476562 -1.671875 6.429688 -1.039062 7.484375 -0.625 C 8.546875 -0.207031 9.597656 0 10.640625 0 C 10.960938 0 11.257812 -0.0078125 11.53125 -0.03125 C 11.8125 -0.0507812 12.078125 -0.0976562 12.328125 -0.171875 C 12.859375 -0.304688 13.242188 -0.640625 13.484375 -1.171875 C 13.722656 -1.703125 13.914062 -2.273438 14.0625 -2.890625 C 14.21875 -3.515625 14.421875 -4.046875 14.671875 -4.484375 C 14.929688 -4.898438 15.316406 -5.128906 15.828125 -5.171875 C 16.347656 -5.222656 16.769531 -5.078125 17.09375 -4.734375 C 17.4375 -4.390625 17.601562 -3.984375 17.59375 -3.515625 C 17.582031 -3.054688 17.414062 -2.644531 17.09375 -2.28125 C 16.257812 -1.40625 15.25 -0.75 14.0625 -0.3125 C 12.882812 0.125 11.726562 0.34375 10.59375 0.34375 C 9.539062 0.34375 8.460938 0.125 7.359375 -0.3125 C 6.253906 -0.75 5.265625 -1.40625 4.390625 -2.28125 C 3.515625 -3.15625 2.851562 -4.144531 2.40625 -5.25 C 1.957031 -6.351562 1.734375 -7.484375 1.734375 -8.640625 C 1.734375 -9.785156 1.957031 -10.910156 2.40625 -12.015625 C 2.851562 -13.117188 3.515625 -14.109375 4.390625 -14.984375 C 5.265625 -15.859375 6.253906 -16.515625 7.359375 -16.953125 C 8.460938 -17.390625 9.578125 -17.609375 10.703125 -17.609375 C 11.859375 -17.609375 12.984375 -17.390625 14.078125 -16.953125 C 15.171875 -16.515625 16.15625 -15.859375 17.03125 -14.984375 C 17.90625 -14.109375 18.566406 -13.117188 19.015625 -12.015625 C 19.460938 -10.910156 19.6875 -9.785156 19.6875 -8.640625 L 19.6875 -1.734375 C 19.6875 -1.429688 19.78125 -1.125 19.96875 -0.8125 C 20.164062 -0.5 20.414062 -0.34375 20.71875 -0.34375 Z M 20.71875 -0.34375 "/></g></g><g transform="translate(102.506412, 116.634112)"><g><path d="M 3.6875 -5.1875 L 3.34375 -5.1875 L 3.34375 -24.171875 L 3.6875 -24.171875 Z M 4.625 -0.140625 C 4.238281 0.160156 3.816406 0.320312 3.359375 0.34375 C 2.910156 0.363281 2.515625 0.203125 2.171875 -0.140625 C 1.828125 -0.460938 1.6875 -0.875 1.75 -1.375 C 1.820312 -1.882812 2.046875 -2.28125 2.421875 -2.5625 C 2.804688 -2.851562 3.222656 -3.007812 3.671875 -3.03125 C 4.117188 -3.0625 4.519531 -2.90625 4.875 -2.5625 C 5.21875 -2.238281 5.359375 -1.820312 5.296875 -1.3125 C 5.242188 -0.800781 5.019531 -0.410156 4.625 -0.140625 Z M 4.625 -0.140625 "/></g></g></g><g fill="#000000" fill-opacity="1"><g transform="translate(109.551847, 116.634112)"><g><path d="M 20.71875 -0.34375 L 20.71875 0 C 20.351562 0 20.03125 -0.191406 19.75 -0.578125 C 19.476562 -0.972656 19.34375 -1.359375 19.34375 -1.734375 L 19.34375 -8.640625 C 19.34375 -9.710938 19.128906 -10.785156 18.703125 -11.859375 C 18.273438 -12.929688 17.632812 -13.894531 16.78125 -14.75 C 15.925781 -15.59375 14.96875 -16.222656 13.90625 -16.640625 C 12.851562 -17.054688 11.785156 -17.265625 10.703125 -17.265625 C 9.617188 -17.265625 8.546875 -17.054688 7.484375 -16.640625 C 6.429688 -16.222656 5.476562 -15.59375 4.625 -14.75 C 3.769531 -13.894531 3.128906 -12.929688 2.703125 -11.859375 C 2.285156 -10.785156 2.078125 -9.710938 2.078125 -8.640625 C 2.078125 -7.503906 2.285156 -6.410156 2.703125 -5.359375 C 3.128906 -4.316406 3.769531 -3.367188 4.625 -2.515625 C 5.476562 -1.671875 6.429688 -1.039062 7.484375 -0.625 C 8.546875 -0.207031 9.597656 0 10.640625 0 C 10.960938 0 11.257812 -0.0078125 11.53125 -0.03125 C 11.8125 -0.0507812 12.078125 -0.0976562 12.328125 -0.171875 C 12.859375 -0.304688 13.242188 -0.640625 13.484375 -1.171875 C 13.722656 -1.703125 13.914062 -2.273438 14.0625 -2.890625 C 14.21875 -3.515625 14.421875 -4.046875 14.671875 -4.484375 C 14.929688 -4.898438 15.316406 -5.128906 15.828125 -5.171875 C 16.347656 -5.222656 16.769531 -5.078125 17.09375 -4.734375 C 17.4375 -4.390625 17.601562 -3.984375 17.59375 -3.515625 C 17.582031 -3.054688 17.414062 -2.644531 17.09375 -2.28125 C 16.257812 -1.40625 15.25 -0.75 14.0625 -0.3125 C 12.882812 0.125 11.726562 0.34375 10.59375 0.34375 C 9.539062 0.34375 8.460938 0.125 7.359375 -0.3125 C 6.253906 -0.75 5.265625 -1.40625 4.390625 -2.28125 C 3.515625 -3.15625 2.851562 -4.144531 2.40625 -5.25 C 1.957031 -6.351562 1.734375 -7.484375 1.734375 -8.640625 C 1.734375 -9.785156 1.957031 -10.910156 2.40625 -12.015625 C 2.851562 -13.117188 3.515625 -14.109375 4.390625 -14.984375 C 5.265625 -15.859375 6.253906 -16.515625 7.359375 -16.953125 C 8.460938 -17.390625 9.578125 -17.609375 10.703125 -17.609375 C 11.859375 -17.609375 12.984375 -17.390625 14.078125 -16.953125 C 15.171875 -16.515625 16.15625 -15.859375 17.03125 -14.984375 C 17.90625 -14.109375 18.566406 -13.117188 19.015625 -12.015625 C 19.460938 -10.910156 19.6875 -9.785156 19.6875 -8.640625 L 19.6875 -1.734375 C 19.6875 -1.429688 19.78125 -1.125 19.96875 -0.8125 C 20.164062 -0.5 20.414062 -0.34375 20.71875 -0.34375 Z M 20.71875 -0.34375 "/></g></g><g transform="translate(130.96445, 116.634112)"><g><path d="M 1.734375 0 L 1.734375 -11.734375 C 1.734375 -12.722656 1.957031 -13.660156 2.40625 -14.546875 C 2.851562 -15.441406 3.484375 -16.175781 4.296875 -16.75 C 5.117188 -17.320312 6.066406 -17.609375 7.140625 -17.609375 C 7.835938 -17.609375 8.59375 -17.488281 9.40625 -17.25 C 10.226562 -17.007812 11.003906 -16.691406 11.734375 -16.296875 C 12.472656 -15.910156 13.023438 -15.472656 13.390625 -14.984375 C 13.785156 -14.484375 13.953125 -14.015625 13.890625 -13.578125 C 13.835938 -13.140625 13.671875 -12.789062 13.390625 -12.53125 C 13.023438 -12.1875 12.609375 -12.03125 12.140625 -12.0625 C 11.671875 -12.101562 11.285156 -12.34375 10.984375 -12.78125 C 10.796875 -13.050781 10.644531 -13.40625 10.53125 -13.84375 C 10.414062 -14.28125 10.285156 -14.722656 10.140625 -15.171875 C 10.003906 -15.617188 9.820312 -16.019531 9.59375 -16.375 C 9.363281 -16.738281 9.046875 -16.976562 8.640625 -17.09375 C 8.378906 -17.164062 8.101562 -17.210938 7.8125 -17.234375 C 7.53125 -17.253906 7.296875 -17.265625 7.109375 -17.265625 C 6.117188 -17.265625 5.242188 -16.992188 4.484375 -16.453125 C 3.722656 -15.910156 3.128906 -15.21875 2.703125 -14.375 C 2.285156 -13.539062 2.078125 -12.660156 2.078125 -11.734375 L 2.078125 0 Z M 1.734375 0 "/></g></g></g><g fill="#000000" fill-opacity="1"><g transform="translate(145.6079, 116.634112)"><g><path d="M 14.5 -16.921875 L 5.875 -16.921875 L 5.875 -6.59375 C 5.875 -6.289062 5.882812 -5.992188 5.90625 -5.703125 C 5.925781 -5.421875 5.972656 -5.15625 6.046875 -4.90625 C 6.179688 -4.375 6.515625 -3.988281 7.046875 -3.75 C 7.578125 -3.507812 8.148438 -3.316406 8.765625 -3.171875 C 9.390625 -3.035156 9.921875 -2.832031 10.359375 -2.5625 C 10.773438 -2.320312 11.003906 -1.9375 11.046875 -1.40625 C 11.097656 -0.882812 10.945312 -0.460938 10.59375 -0.140625 C 10.25 0.203125 9.847656 0.367188 9.390625 0.359375 C 8.929688 0.347656 8.519531 0.179688 8.15625 -0.140625 C 7.28125 -0.960938 6.625 -1.96875 6.1875 -3.15625 C 5.75 -4.34375 5.53125 -5.488281 5.53125 -6.59375 L 5.53125 -16.921875 L 0.34375 -16.921875 L 0.34375 -17.265625 L 5.53125 -17.265625 L 5.53125 -20.71875 L 5.875 -20.71875 L 5.875 -17.265625 L 14.5 -17.265625 Z M 14.5 -16.921875 "/></g></g></g></svg>